<?xml version="1.0" encoding="iso-8859-1"?>
<!-- Uploaded to: SVG Repo, www.svgrepo.com, Generator: SVG Repo Mixer Tools -->
<svg height="800px" width="800px" version="1.1" id="Layer_1" xmlns="http://www.w3.org/2000/svg" xmlns:xlink="http://www.w3.org/1999/xlink" 
	 viewBox="0 0 512 512" xml:space="preserve">
<circle style="fill:#FFEDB5;" cx="256" cy="256" r="256"/>
<g>
	<path style="fill:#FEE187;" d="M512,256c0-4.248-0.109-8.471-0.314-12.669l-93.284-92.767L92.517,360.296l151.412,151.412
		C247.93,511.895,251.952,512,256,512C397.384,512,512,397.384,512,256z"/>
	<polygon style="fill:#FEE187;" points="316.002,99.145 377.823,162.047 199.399,154.29 201.123,109.468 	"/>
</g>
<path style="fill:#606060;" d="M295.577,197.818h-79.155c-15.724,0-28.517-12.793-28.517-28.517v-50.71
	c0-15.724,12.793-28.517,28.517-28.517h79.155c15.724,0,28.517,12.793,28.517,28.517v50.71
	C324.094,185.025,311.301,197.818,295.577,197.818z M216.423,112.485c-3.367,0-6.106,2.739-6.106,6.106v50.71
	c0,3.367,2.739,6.106,6.106,6.106h79.155c3.367,0,6.106-2.739,6.106-6.106v-50.71c0-3.367-2.739-6.106-6.106-6.106H216.423z"/>
<g>
	<path style="fill:#494949;" d="M295.577,90.074h-40.726v22.411h40.726c3.367,0,6.106,2.739,6.106,6.106v50.71
		c0,3.367-2.739,6.106-6.106,6.106h-40.726v22.411h40.726c15.724,0,28.517-12.793,28.517-28.517v-50.71
		C324.094,102.867,311.301,90.074,295.577,90.074z"/>
	<path style="fill:#494949;" d="M398.365,369.778H113.633c-15.631,0-28.3-12.671-28.3-28.301V170.522
		c0-15.631,12.671-28.3,28.3-28.3h284.732c15.631,0,28.301,12.671,28.301,28.3v170.955
		C426.667,357.107,413.996,369.778,398.365,369.778z"/>
</g>
<path style="fill:#353535;" d="M398.365,142.222H254.85v227.556h143.515c15.631,0,28.301-12.671,28.301-28.301V170.524
	C426.667,154.893,413.996,142.222,398.365,142.222z"/>
<path style="fill:#333333;" d="M398.367,256H113.635c-15.631,0-28.301-12.671-28.301-28.301v-57.177
	c0-15.631,12.671-28.3,28.301-28.3h284.732c15.631,0,28.301,12.671,28.301,28.3v57.177C426.667,243.329,413.996,256,398.367,256z"/>
<path style="fill:#1E1E1E;" d="M398.365,142.222H254.85V256h143.515c15.631,0,28.301-12.671,28.301-28.301v-57.175
	C426.667,154.893,413.996,142.222,398.365,142.222z"/>
<path style="fill:#FEE187;" d="M158.455,284.444h-4.022c-6.744,0-12.212-5.466-12.212-12.21v-32.466
	c0-6.744,5.467-12.21,12.212-12.21h4.022c6.744,0,12.212,5.467,12.212,12.21v32.466C170.667,278.978,165.2,284.444,158.455,284.444z
	"/>
<path style="fill:#FFC61B;" d="M158.455,287.892h-4.022c-8.635,0-15.658-7.025-15.658-15.66v-32.465
	c0-8.635,7.023-15.66,15.658-15.66h4.022c8.635,0,15.66,7.025,15.66,15.66v32.465C174.114,280.867,167.09,287.892,158.455,287.892z
	 M154.433,231.003c-4.832,0-8.763,3.931-8.763,8.764v32.465c0,4.834,3.931,8.764,8.763,8.764h4.022c4.834,0,8.764-3.93,8.764-8.764
	v-32.465c0-4.834-3.931-8.764-8.764-8.764H154.433z"/>
<path style="fill:#FEE187;" d="M357.567,284.444h-4.022c-6.744,0-12.21-5.466-12.21-12.21v-32.466c0-6.744,5.467-12.21,12.21-12.21
	h4.022c6.744,0,12.21,5.467,12.21,12.21v32.466C369.778,278.978,364.311,284.444,357.567,284.444z"/>
<path style="fill:#FFC61B;" d="M357.566,287.892h-4.022c-8.635,0-15.658-7.025-15.658-15.66v-32.465
	c0-8.635,7.023-15.66,15.658-15.66h4.022c8.635,0,15.66,7.025,15.66,15.66v32.465C373.226,280.867,366.201,287.892,357.566,287.892z
	 M353.544,231.003c-4.832,0-8.763,3.931-8.763,8.764v32.465c0,4.834,3.931,8.764,8.763,8.764h4.022c4.834,0,8.764-3.93,8.764-8.764
	v-32.465c0-4.834-3.931-8.764-8.764-8.764H353.544z"/>
<path style="fill:#1E1E1E;" d="M426.667,341.476v-28.588c-31.418,0-56.889,25.471-56.889,56.889h28.588
	C413.996,369.778,426.667,357.107,426.667,341.476z"/>
<path style="fill:#333333;" d="M85.333,312.889v28.588c0,15.631,12.671,28.301,28.301,28.301h28.588
	C142.222,338.36,116.752,312.889,85.333,312.889z"/>
</svg>