<?xml version="1.0" encoding="iso-8859-1"?>
<!-- Uploaded to: SVG Repo, www.svgrepo.com, Generator: SVG Repo Mixer Tools -->
<svg height="800px" width="800px" version="1.1" id="Layer_1" xmlns="http://www.w3.org/2000/svg" xmlns:xlink="http://www.w3.org/1999/xlink" 
	 viewBox="0 0 511.984 511.984" xml:space="preserve">
<g>
	<path style="fill:#ED5564;" d="M362.644,213.323c-23.514,0-42.654,19.14-42.654,42.671s19.141,42.669,42.654,42.669
		c23.531,0,42.686-19.139,42.686-42.669S386.176,213.323,362.644,213.323z"/>
	<path style="fill:#ED5564;" d="M469.328,213.323c-23.529,0-42.686,19.14-42.686,42.671s19.156,42.669,42.686,42.669
		c23.516,0,42.656-19.139,42.656-42.669S492.844,213.323,469.328,213.323z"/>
</g>
<path style="fill:#FFCE54;" d="M324.881,182.027l-5.203-9.312c-7.656-13.656-17.188-26.234-28.344-37.389
	c-32.232-32.249-75.09-49.999-120.683-49.999c-45.577,0-88.435,17.75-120.668,49.999C17.75,167.558,0,210.401,0,255.993
	c0,45.591,17.75,88.435,49.983,120.667s75.091,49.998,120.668,49.998c45.592,0,88.45-17.766,120.683-49.998
	c11.156-11.156,20.688-23.734,28.344-37.389l5.203-9.312l-132.356-73.966L324.881,182.027z"/>
<g style="opacity:0.2;">
	<path style="fill:#FFFFFF;" d="M191.994,405.315c-45.592,0-88.435-17.748-120.684-49.982
		c-32.218-32.232-49.967-75.09-49.967-120.667c0-40.529,14.031-78.888,39.78-109.543c-3.844,3.219-7.562,6.609-11.14,10.203
		C17.75,167.558,0,210.401,0,255.993c0,45.591,17.75,88.435,49.983,120.667s75.091,49.998,120.668,49.998
		c45.592,0,88.45-17.766,120.683-49.998c3.578-3.562,6.984-7.281,10.219-11.141C270.883,391.286,232.524,405.315,191.994,405.315z"
		/>
</g>
<path style="fill:#434A54;" d="M196.4,185.745c-8.312,8.328-21.828,8.328-30.155,0c-8.343-8.328-8.343-21.843,0-30.171
	c8.328-8.328,21.843-8.328,30.155,0C204.744,163.903,204.744,177.417,196.4,185.745z"/>
<g>
	<path style="opacity:0.2;fill:#FFFFFF;enable-background:new    ;" d="M359.519,252.868c-4.156,4.171-10.906,4.171-15.062,0
		c-4.186-4.172-4.186-10.922,0-15.078c4.156-4.171,10.906-4.171,15.062,0C363.707,241.947,363.707,248.697,359.519,252.868z"/>
	<path style="opacity:0.2;fill:#FFFFFF;enable-background:new    ;" d="M466.203,252.868c-4.17,4.171-10.936,4.171-15.092,0
		c-4.156-4.172-4.156-10.922,0-15.078c4.156-4.171,10.922-4.171,15.092,0C470.359,241.947,470.359,248.697,466.203,252.868z"/>
</g>
</svg>