<?xml version="1.0" encoding="UTF-8"?>
<svg version="1.1" xmlns="http://www.w3.org/2000/svg" width="298" height="267">
<path d="M0 0 C98.34 0 196.68 0 298 0 C298 88.11 298 176.22 298 267 C199.66 267 101.32 267 0 267 C0 178.89 0 90.78 0 0 Z " fill="#FEFDFE" transform="translate(0,0)"/>
<path d="M0 0 C1.03046448 -0.01004562 2.06092896 -0.02009125 3.12261963 -0.03044128 C4.25771469 -0.03627228 5.39280975 -0.04210327 6.56230164 -0.04811096 C8.35022629 -0.06278664 8.35022629 -0.06278664 10.17427063 -0.07775879 C14.13261308 -0.10776032 18.09095386 -0.12941081 22.04936218 -0.14796448 C23.05942499 -0.15291046 23.05942499 -0.15291046 24.0898931 -0.15795636 C30.44004565 -0.18873639 36.79020292 -0.21544477 43.14040852 -0.23237514 C51.26373194 -0.25428663 59.38639477 -0.29626713 67.50945407 -0.36581272 C73.22077427 -0.41305046 78.93191622 -0.43730825 84.64342564 -0.44457203 C88.05492365 -0.4495287 91.46567724 -0.46460789 94.87696266 -0.50431633 C98.68406177 -0.54305921 102.48942854 -0.54428668 106.29667664 -0.53639221 C107.99021019 -0.56639313 107.99021019 -0.56639313 109.71795654 -0.59700012 C117.12692821 -0.52787452 117.12692821 -0.52787452 119.94007683 1.41549397 C123.3932355 5.31150467 123.74456401 8.72201718 123.71733093 13.78953552 C123.71737122 14.50165695 123.7174115 15.21377838 123.717453 15.94747925 C123.71211949 17.44431952 123.69462955 18.94116115 123.66557312 20.43772888 C123.62362765 22.72058662 123.62451713 25.00049689 123.63139343 27.28367615 C123.5434663 39.52224353 123.5434663 39.52224353 120.12358093 44.16062927 C118.38597648 45.87255484 116.54039641 47.32425576 114.62236023 48.83177185 C111.97036217 51.12768431 111.97036217 51.12768431 109.9641571 54.36643982 C106.20779796 59.67691528 102.3875729 63.47138707 95.85136414 64.85160828 C86.92101247 65.73805311 77.97822277 65.41166379 69.02653503 65.05326843 C65.31310947 64.91894346 61.59851424 64.86063118 57.88334656 64.7953949 C50.62691627 64.65702715 43.37624548 64.43597031 36.12358093 64.16062927 C36.12358093 66.14062927 36.12358093 68.12062927 36.12358093 70.16062927 C36.99975067 70.14952621 37.87592041 70.13842316 38.77864075 70.12698364 C47.04715892 70.02668063 55.31547194 69.95061314 63.5844593 69.90156841 C67.83539467 69.87550584 72.08582617 69.84016998 76.33647156 69.78343201 C80.44082953 69.72899132 84.54470374 69.69918361 88.64939499 69.68624306 C90.21310413 69.67702464 91.77678763 69.65902264 93.34029007 69.63197899 C95.53571939 69.59552505 97.72916582 69.59069025 99.92485046 69.59300232 C101.17283417 69.58189926 102.42081787 69.5707962 103.70661926 69.55935669 C108.29931076 70.36751895 109.90321039 71.81760009 113.12358093 75.16062927 C113.75146012 78.12897894 113.99185606 80.27923193 113.95561218 83.24266052 C113.96372421 84.01567001 113.97183624 84.7886795 113.98019409 85.58511353 C113.98863482 87.21647767 113.98183635 88.84798323 113.96073914 90.47923279 C113.93623823 92.95722063 113.98076112 95.427323 114.03178406 97.9047699 C114.11274519 111.09350573 114.11274519 111.09350573 110.05717468 115.80125427 C108.77302738 116.95196668 107.4608299 118.07208044 106.12358093 119.16062927 C104.82467834 120.4910403 103.5383147 121.83379863 102.26420593 123.18797302 C100.96994419 124.49395344 99.67306401 125.79734411 98.37358093 127.09812927 C97.71487 127.7690863 97.05615906 128.44004333 96.37748718 129.1313324 C95.74197937 129.7687738 95.10647156 130.40621521 94.45170593 131.06297302 C93.88355164 131.63523621 93.31539734 132.20749939 92.73002625 132.79710388 C89.71762974 135.35397842 86.78074315 135.28328584 83.00956726 135.27415466 C81.96871475 135.27407913 80.92786224 135.2740036 79.85546875 135.27392578 C78.73351608 135.2687645 77.61156342 135.26360321 76.45561218 135.25828552 C75.30566269 135.25687057 74.1557132 135.25545563 72.97091675 135.2539978 C69.29261185 135.24839356 65.61436748 135.23584031 61.93608093 135.22312927 C59.44454535 135.21811482 56.95300882 135.21355182 54.46147156 135.2094574 C48.34882064 135.19842275 42.23620511 135.18168046 36.12358093 135.16062927 C36.16023865 136.4213324 36.19689636 137.68203552 36.23466492 138.98094177 C36.36192594 143.68452293 36.44192811 148.38795388 36.50810242 153.09275818 C36.54317859 155.12394347 36.59085449 157.15495361 36.6516571 159.18553162 C36.73714683 162.11517123 36.77639657 165.04246453 36.80717468 167.97312927 C36.84330368 168.8724115 36.87943268 169.77169373 36.91665649 170.69822693 C36.92052083 176.98597179 35.3109962 180.03482672 30.89700317 184.4875946 C30.01915916 185.31574677 30.01915916 185.31574677 29.12358093 186.16062927 C28.42789001 186.9042572 27.7321991 187.64788513 27.01542664 188.41404724 C25.16083321 190.29317861 23.30204458 192.16778272 21.43608093 194.03562927 C20.7857489 194.6982074 20.13541687 195.36078552 19.46537781 196.04344177 C18.83309265 196.67766052 18.2008075 197.31187927 17.54936218 197.96531677 C16.9864447 198.53234314 16.42352722 199.09936951 15.84355164 199.68357849 C10.29283629 204.45033901 3.77968163 203.49759523 -3.14814758 203.4763031 C-5.30352922 203.4731445 -7.4575352 203.49661354 -9.61274719 203.5219574 C-10.99100068 203.52423083 -12.36925784 203.52493368 -13.74751282 203.52391052 C-14.99460022 203.52689148 -16.24168762 203.52987244 -17.52656555 203.53294373 C-21.20954879 203.12360407 -22.99412415 202.46163156 -25.87641907 200.16062927 C-28.88218332 196.11377158 -29.26193015 193.1250216 -29.29774475 188.13482666 C-29.30665812 187.43932274 -29.31557148 186.74381882 -29.32475495 186.02723902 C-29.35071472 183.70285804 -29.3553316 181.37894239 -29.3598175 179.0544281 C-29.37370948 177.38519813 -29.38878447 175.71597766 -29.404953 174.04676819 C-29.44426319 169.51554914 -29.46364787 164.98446332 -29.47698498 160.45310044 C-29.4857882 157.61955055 -29.49810473 154.78603678 -29.5114975 151.95250511 C-29.55250826 143.07955531 -29.58151411 134.20668841 -29.59310317 125.33365041 C-29.60653791 115.10477539 -29.6591504 104.87710456 -29.74610496 94.64859563 C-29.81104885 86.73330488 -29.84122092 78.81835212 -29.84522653 70.90279788 C-29.84836453 66.17926267 -29.86594848 61.45686007 -29.91968536 56.73360634 C-29.96929399 52.28676691 -29.97552041 47.84190435 -29.94926834 43.39488602 C-29.94696563 41.76873269 -29.95987652 40.14247071 -29.9896431 38.51658821 C-30.12603448 30.59828885 -30.09154789 24.5925008 -24.53785706 18.35012817 C-23.01248735 16.92261556 -21.46016512 15.52308789 -19.87641907 14.16062927 C-18.64787378 12.90971357 -17.42803376 11.65007009 -16.22407532 10.37547302 C-15.13160904 9.28043926 -14.0366255 8.18791003 -12.93891907 7.09812927 C-12.0949054 6.24831482 -12.0949054 6.24831482 -11.23384094 5.3813324 C-7.26752379 1.42449271 -5.54334499 0.042382 0 0 Z " fill="#4D3D9A" transform="translate(60.87641906738281,32.83937072753906)"/>
<path d="M0 0 C19.449375 -0.020625 38.89875 -0.04125 58.9375 -0.0625 C65.08882568 -0.071604 71.24015137 -0.08070801 77.57788086 -0.09008789 C85.06359863 -0.09460449 85.06359863 -0.09460449 88.56300354 -0.09544373 C91.01796143 -0.09698382 93.47291855 -0.10051006 95.9278717 -0.10557556 C99.63674239 -0.11284875 103.34556666 -0.11390756 107.05444336 -0.11352539 C108.70724635 -0.11892255 108.70724635 -0.11892255 110.39343929 -0.12442875 C111.38560735 -0.12305125 112.3777754 -0.12167376 113.40000916 -0.12025452 C114.26925994 -0.12117631 115.13851072 -0.1220981 116.03410244 -0.12304783 C118 0 118 0 119 1 C119.08790975 3.29151417 119.10694038 5.58572524 119.09765625 7.87890625 C119.0962413 8.5655687 119.09482635 9.25223114 119.09336853 9.95970154 C119.08775479 12.16067801 119.07520007 14.36155409 119.0625 16.5625 C119.05748676 18.05143083 119.05292355 19.54036324 119.04882812 21.02929688 C119.03778093 24.68623075 119.02050713 28.34310558 119 32 C117.9815802 32.00586624 116.9631604 32.01173248 115.91387939 32.01777649 C106.32004375 32.07496923 96.72643554 32.14771273 87.13283157 32.23571491 C82.20055014 32.28045805 77.26835206 32.31970546 72.3359375 32.34643555 C67.57659686 32.3724292 62.81757631 32.4128036 58.05843353 32.46318626 C56.24199146 32.47988166 54.425494 32.49137927 52.6089859 32.49761391 C50.06613036 32.50722602 47.52409867 32.53524991 44.98144531 32.56762695 C44.22906586 32.56619186 43.4766864 32.56475677 42.70150757 32.5632782 C39.56399285 32.61984315 37.31716322 32.82893556 34.53251648 34.33085632 C32.08809227 36.9932063 32.49872078 39.43180675 32.50390625 42.96875 C32.5017234 43.98382629 32.5017234 43.98382629 32.49949646 45.01940918 C32.50115445 46.44836742 32.51270494 47.87734369 32.53344727 49.30615234 C32.56240245 51.49263398 32.55405741 53.67669042 32.54101562 55.86328125 C32.54725341 57.25261594 32.55564468 58.64194298 32.56640625 60.03125 C32.58102905 61.92713867 32.58102905 61.92713867 32.59594727 63.86132812 C32.7548859 66.88690155 32.7548859 66.88690155 34.08514404 68.66914368 C37.00722948 70.70004102 39.51388085 70.40201274 43.04174805 70.43237305 C43.75419678 70.4425647 44.46664551 70.45275635 45.20068359 70.46325684 C47.55444142 70.49343951 49.90779265 70.50266047 52.26171875 70.51171875 C53.89412291 70.5285616 55.52651406 70.5467113 57.15888977 70.56611633 C61.45455869 70.6136656 65.75017491 70.64344292 70.04602051 70.66955566 C75.20068602 70.7045728 80.35514907 70.76159945 85.50965118 70.81494904 C93.33974206 70.89352077 101.16956689 70.94408211 109 71 C109 81.56 109 92.12 109 103 C103.84890625 103.03738281 98.6978125 103.07476562 93.390625 103.11328125 C90.12757067 103.14355685 86.86457117 103.17470191 83.6015625 103.20898438 C78.42222848 103.26331753 73.24300292 103.31442696 68.06347656 103.34643555 C63.88765915 103.37244278 59.71220572 103.41282654 55.53661346 103.46318626 C53.94346392 103.47987252 52.35025139 103.49137585 50.75702667 103.49761391 C48.52545504 103.50723619 46.2948183 103.53527106 44.06347656 103.56762695 C42.15819183 103.58428154 42.15819183 103.58428154 40.2144165 103.60127258 C36.74090481 104.03213907 35.27766166 104.34589782 33 107 C32.38743881 109.83110452 32.38743881 109.83110452 32.4699707 113.10791016 C32.45347977 114.36576324 32.43698883 115.62361633 32.41999817 116.91958618 C32.4216525 118.29274531 32.42358684 119.66590413 32.42578125 121.0390625 C32.4133392 122.44487249 32.39900582 123.8506669 32.38285828 125.25643921 C32.34481065 128.95502936 32.32964005 132.65335158 32.32006836 136.35211182 C32.30033041 142.27970557 32.24360608 148.20709477 32.19130516 154.13447189 C32.17591081 156.20910164 32.16875934 158.28362999 32.16316223 160.35830688 C32.15612778 161.60985565 32.14909332 162.86140442 32.1418457 164.15087891 C32.13836624 165.25879791 32.13488678 166.36671692 32.13130188 167.50820923 C32 170 32 170 31 171 C20.77 171 10.54 171 0 171 C0 114.57 0 58.14 0 0 Z " fill="#FDFCFE" transform="translate(58,40)"/>
<path d="M0 0 C98.34 0 196.68 0 298 0 C298 88.11 298 176.22 298 267 C199.66 267 101.32 267 0 267 C0 178.89 0 90.78 0 0 Z M9 9 C9 91.17 9 173.34 9 258 C101.4 258 193.8 258 289 258 C289 175.83 289 93.66 289 9 C196.6 9 104.2 9 9 9 Z " fill="#2E0D47" transform="translate(0,0)"/>
<path d="M0 0 C0.33 0 0.66 0 1 0 C1 56.1 1 112.2 1 170 C16.345 169.505 16.345 169.505 32 169 C32.01417969 164.49859375 32.02835938 159.9971875 32.04296875 155.359375 C32.06821578 151.76853682 32.09844324 148.17781739 32.13204193 144.58705139 C32.16613493 140.79737309 32.19146405 137.00810127 32.19555664 133.21826172 C32.1998375 129.56743396 32.22828014 125.91751847 32.27343178 122.2669754 C32.28641399 120.87479213 32.29071181 119.48249971 32.28615379 118.09026337 C32.28125421 116.13919896 32.31018739 114.18813858 32.34057617 112.23730469 C32.34723801 111.1269989 32.35389984 110.01669312 32.36076355 108.8727417 C33 106 33 106 35.09265137 103.6385498 C38.70988705 101.59991544 41.03398903 101.51687558 45.17700195 101.54589844 C45.87998917 101.54531433 46.58297638 101.54473022 47.30726624 101.54412842 C49.61811661 101.54690293 51.9276578 101.5779621 54.23828125 101.609375 C55.8453857 101.61683971 57.45249927 101.62253156 59.05961609 101.62652588 C63.27993099 101.64176427 67.49969116 101.68103004 71.7197876 101.7253418 C76.02991228 101.76633359 80.340127 101.7845452 84.65039062 101.8046875 C93.10054278 101.84752669 101.55013837 101.91786129 110 102 C110 91.77 110 81.54 110 71 C110.33 71 110.66 71 111 71 C111.33 79.91 111.66 88.82 112 98 C112.99 97.67 113.98 97.34 115 97 C115 87.43 115 77.86 115 68 C114.01 67.67 113.02 67.34 112 67 C112.33 66.34 112.66 65.68 113 65 C110.36 65 107.72 65 105 65 C105 64.67 105 64.34 105 64 C72.825 63.505 72.825 63.505 40 63 C40 62.67 40 62.34 40 62 C49.15351903 61.88400415 58.30678396 61.79523358 67.46087837 61.74093914 C71.71181374 61.71487657 75.96224523 61.67954071 80.21289062 61.62280273 C84.3172486 61.56836204 88.42112281 61.53855434 92.52581406 61.52561378 C94.0895232 61.51639537 95.65320669 61.49839337 97.21670914 61.47134972 C99.41213845 61.43489578 101.60558488 61.43006098 103.80126953 61.43237305 C105.04925323 61.42126999 106.29723694 61.41016693 107.58303833 61.39872742 C112.17572982 62.20688968 113.77962946 63.65697082 117 67 C117.62787919 69.96834966 117.86827513 72.11860266 117.83203125 75.08203125 C117.84014328 75.85504074 117.84825531 76.62805023 117.85661316 77.42448425 C117.86505389 79.05584839 117.85825542 80.68735396 117.8371582 82.31860352 C117.8126573 84.79659136 117.85718019 87.26669373 117.90820312 89.74414062 C117.98916426 102.93287646 117.98916426 102.93287646 113.93359375 107.640625 C112.64944645 108.79133741 111.33724897 109.91145117 110 111 C108.70109741 112.33041103 107.41473377 113.67316936 106.140625 115.02734375 C104.84636325 116.33332416 103.54948308 117.63671484 102.25 118.9375 C101.59128906 119.60845703 100.93257813 120.27941406 100.25390625 120.97070312 C99.61839844 121.60814453 98.98289062 122.24558594 98.328125 122.90234375 C97.7599707 123.47460693 97.19181641 124.04687012 96.60644531 124.63647461 C93.59404881 127.19334915 90.65716222 127.12265657 86.88598633 127.11352539 C85.84513382 127.11344986 84.80428131 127.11337433 83.73188782 127.11329651 C82.60993515 127.10813522 81.48798248 127.10297394 80.33203125 127.09765625 C79.18208176 127.0962413 78.03213226 127.09482635 76.84733582 127.09336853 C73.16903092 127.08776429 69.49078655 127.07521104 65.8125 127.0625 C63.32096442 127.05748555 60.82942789 127.05292255 58.33789062 127.04882812 C52.22523971 127.03779347 46.11262418 127.02105118 40 127 C40.05498657 128.89105469 40.05498657 128.89105469 40.11108398 130.8203125 C40.23834501 135.52389366 40.31834718 140.22732461 40.38452148 144.93212891 C40.41959766 146.96331419 40.46727355 148.99432433 40.52807617 151.02490234 C40.6135659 153.95454195 40.65281564 156.88183526 40.68359375 159.8125 C40.71972275 160.71178223 40.75585175 161.61106445 40.79307556 162.53759766 C40.79693989 168.82534252 39.18741527 171.87419745 34.77342224 176.32696533 C33.89557823 177.15511749 33.89557823 177.15511749 33 178 C32.30430908 178.74362793 31.60861816 179.48725586 30.8918457 180.25341797 C29.03725228 182.13254933 27.17846365 184.00715344 25.3125 185.875 C24.66216797 186.53757813 24.01183594 187.20015625 23.34179688 187.8828125 C22.70951172 188.51703125 22.07722656 189.15125 21.42578125 189.8046875 C20.86286377 190.37171387 20.29994629 190.93874023 19.7199707 191.52294922 C15.55365418 195.10083636 12.28195019 195.24001599 6.828125 195.1953125 C6.1457074 195.1924826 5.46328979 195.18965271 4.76019287 195.18673706 C2.58994693 195.17558098 0.42012029 195.15048557 -1.75 195.125 C-3.22525444 195.11496426 -4.70051537 195.10583944 -6.17578125 195.09765625 C-9.78398942 195.07565687 -13.39195375 195.04115883 -17 195 C-17.33 194.01 -17.66 193.02 -18 192 C-18.99 191.67 -19.98 191.34 -21 191 C-23.36866119 184.32180139 -23.3337777 177.71339489 -23.3125 170.6875 C-23.32861328 169.60404297 -23.34472656 168.52058594 -23.36132812 167.40429688 C-23.36197266 166.36724609 -23.36261719 165.33019531 -23.36328125 164.26171875 C-23.36626221 163.32287842 -23.36924316 162.38403809 -23.37231445 161.41674805 C-23 159 -23 159 -21.50927734 157.59960938 C-19.1119898 155.05884134 -19.56031372 152.55887023 -19.48828125 149.14453125 C-19.46135445 148.15207649 -19.46135445 148.15207649 -19.43388367 147.13957214 C-19.37979102 145.03061253 -19.34589069 142.92187901 -19.3125 140.8125 C-19.27932573 139.38082792 -19.24483595 137.94918567 -19.20898438 136.51757812 C-19.12406743 133.0119361 -19.05725079 129.50621527 -19 126 C-16.525 125.505 -16.525 125.505 -14 125 C-13.67 124.01 -13.34 123.02 -13 122 C-14.65 122 -16.3 122 -18 122 C-18 88.67 -18 55.34 -18 21 C-16.68 21.33 -15.36 21.66 -14 22 C-13.67 43.45 -13.34 64.9 -13 87 C-12.67 76.44 -12.34 65.88 -12 55 C-10.35 55.33 -8.7 55.66 -7 56 C-5.94436562 75.06279495 -5.87529032 94.08654678 -5.93133545 113.17016602 C-5.94176903 117.11343836 -5.94617488 121.05671768 -5.95117188 125 C-5.96173351 132.66668493 -5.97868223 140.3333366 -6 148 C-5.67 147.34 -5.34 146.68 -5 146 C-3.68 146.33 -2.36 146.66 -1 147 C-0.67 98.49 -0.34 49.98 0 0 Z " fill="#4F3BAC" transform="translate(57,41)"/>
<path d="M0 0 C1.08087891 -0.02384766 2.16175781 -0.04769531 3.27539062 -0.07226562 C10.53821187 -0.05905249 15.69566958 1.18144641 21.5625 5.5625 C26.12835538 10.2454286 27.7798083 14.81850095 27.94824219 21.2956543 C27.99643097 22.98847786 27.99643097 22.98847786 28.04559326 24.71549988 C28.13509493 29.86713443 28.21746482 35.01843421 28.26269531 40.1706543 C28.28932407 42.88264729 28.34491994 45.59161074 28.42675781 48.30249023 C28.54515744 52.22630433 28.58010181 56.14868131 28.609375 60.07421875 C28.65471375 61.27559982 28.70005249 62.4769809 28.74676514 63.71476746 C28.71212246 70.6694064 27.65387212 74.26050373 22.75878906 79.34228516 C19.75210899 82.08834546 17.48742795 84.11973463 13.375 84.57421875 C12.116875 84.46722656 10.85875 84.36023438 9.5625 84.25 C8.28375 84.17136719 7.005 84.09273438 5.6875 84.01171875 C2.5625 83.5625 2.5625 83.5625 0.5625 82.5625 C0.5625 74.9725 0.5625 67.3825 0.5625 59.5625 C-2.4075 59.5625 -5.3775 59.5625 -8.4375 59.5625 C-8.33308594 60.54089844 -8.22867188 61.51929688 -8.12109375 62.52734375 C-7.70926503 69.17543594 -7.40113106 74.62866373 -11.9375 80 C-17.48737865 84.75703885 -23.32648402 84.36629989 -30.25390625 83.87890625 C-31.30449219 83.77449219 -32.35507813 83.67007813 -33.4375 83.5625 C-34.75342188 80.93065625 -34.60099682 78.9179103 -34.64624023 75.97045898 C-34.66553085 74.79841415 -34.68482147 73.62636932 -34.70469666 72.41880798 C-34.76241888 67.03630101 -34.81205858 61.6539587 -34.8425293 56.27124023 C-34.86027959 53.43581384 -34.89499154 50.60139392 -34.94506836 47.76635742 C-35.01722422 43.67611012 -35.03955082 39.5869389 -35.05859375 35.49609375 C-35.08642441 34.23639267 -35.11425507 32.97669159 -35.14292908 31.67881775 C-35.12410891 23.57886891 -33.76514561 18.71386335 -28.4375 12.5625 C-27.75945312 11.74136719 -27.08140625 10.92023437 -26.3828125 10.07421875 C-25.48175781 9.17123047 -25.48175781 9.17123047 -24.5625 8.25 C-23.96695313 7.63511719 -23.37140625 7.02023438 -22.7578125 6.38671875 C-15.49229451 0.67460275 -9.12990975 -0.09222131 0 0 Z " fill="#F8F6FB" transform="translate(239.4375,32.4375)"/>
<path d="M0 0 C98.34 0 196.68 0 298 0 C298 88.11 298 176.22 298 267 C199.66 267 101.32 267 0 267 C0 178.89 0 90.78 0 0 Z M1 1 C1 88.45 1 175.9 1 266 C98.68 266 196.36 266 297 266 C297 180.2 297 94.4 297 6 C294.81509993 8.67642489 294.81509993 8.67642489 295 11 C294.34 11 293.68 11 293 11 C292.67 11.99 292.34 12.98 292 14 C291.896875 13.05125 291.79375 12.1025 291.6875 11.125 C291.31460705 7.70892499 291.31460705 7.70892499 288 6 C285.32854463 6.80161791 285.32854463 6.80161791 283 8 C283 7.67 283 7.34 283 7 C192.25 7 101.5 7 8 7 C8 6.01 8 5.02 8 4 C8.5709871 4.00037972 9.14197421 4.00075944 9.73026395 4.00115067 C43.60043912 4.0235474 77.4706126 4.04069599 111.34079356 4.05106533 C115.41111499 4.05231598 119.48143641 4.05361031 123.55175781 4.05493164 C124.76720705 4.05532511 124.76720705 4.05532511 126.00721082 4.05572652 C139.11322203 4.06007327 152.21922883 4.06795535 165.32523742 4.0771528 C178.78148276 4.086517 192.2377258 4.09206147 205.69397426 4.09408849 C213.99164237 4.09545797 222.28929803 4.0997774 230.58696231 4.10791647 C236.28336514 4.11321807 241.97976157 4.11479655 247.67616668 4.11350138 C250.95859488 4.11286332 254.24099693 4.11436838 257.52342224 4.11920547 C261.09255656 4.12420591 264.6616383 4.12297496 268.23077393 4.12025452 C269.76584968 4.12462378 269.76584968 4.12462378 271.33193707 4.12908131 C283.79232516 4.16936747 283.79232516 4.16936747 296 2 C296.33 2.66 296.66 3.32 297 4 C297 3.01 297 2.02 297 1 C199.32 1 101.64 1 1 1 Z " fill="#5F4076" transform="translate(0,0)"/>
<path d="M0 0 C26.73 0 53.46 0 81 0 C81.495 0.99 81.495 0.99 82 2 C81.34 2 80.68 2 80 2 C79.66282959 3.50409424 79.66282959 3.50409424 79.31884766 5.03857422 C77.24048547 12.11248964 72.75940679 17.50474954 66.74060059 21.69348145 C57.16912672 26.25646237 44.23409273 24.41109064 33.83428955 23.96130371 C30.12763804 23.81650704 26.41961839 23.7538204 22.7109375 23.68359375 C15.47025822 23.53468736 8.23629299 23.29671829 1 23 C1 25.31 1 27.62 1 30 C1.8703035 29.99555878 2.74060699 29.99111755 3.63728333 29.98654175 C11.8332292 29.94649189 20.02914228 29.91602928 28.22516346 29.89637566 C32.43896975 29.88593192 36.65269527 29.87176201 40.86645508 29.84912109 C44.93185407 29.82741367 48.99717532 29.81543581 53.06262779 29.81024551 C54.61479606 29.80654597 56.16696 29.79932181 57.71909523 29.78853989 C59.89070506 29.77405274 62.06199231 29.77202087 64.23364258 29.77294922 C65.47052322 29.768508 66.70740387 29.76406677 67.98176575 29.75949097 C71 30 71 30 74 32 C74 32.66 74 33.32 74 34 C74.66 34.33 75.32 34.66 76 35 C77.15927528 38.47782583 77.11313066 41.18803257 77.09765625 44.85546875 C77.0962413 45.51710526 77.09482635 46.17874176 77.09336853 46.86042786 C77.08777996 48.96949828 77.07522965 51.07846177 77.0625 53.1875 C77.05748352 54.61913909 77.05292087 56.05077985 77.04882812 57.48242188 C77.0378143 60.98831588 77.02055755 64.4941475 77 68 C76.67 66.68 76.34 65.36 76 64 C74.515 64.495 74.515 64.495 73 65 C72.67 55.1 72.34 45.2 72 35 C69.80432373 35.01047363 67.60864746 35.02094727 65.34643555 35.03173828 C58.09810408 35.06485348 50.84976929 35.08695986 43.60138226 35.10362434 C39.20597526 35.11406888 34.81064565 35.12824027 30.4152832 35.15087891 C26.17482045 35.17258344 21.93443223 35.18456358 17.69391823 35.18975449 C16.07476439 35.19345454 14.45561471 35.20067969 12.83649254 35.21146011 C10.5714875 35.22594339 8.30679182 35.22797929 6.04174805 35.22705078 C4.75157272 35.231492 3.4613974 35.23593323 2.13212585 35.24050903 C-1 35 -1 35 -4 33 C-4.35644531 30.14257812 -4.35644531 30.14257812 -4.328125 26.53125 C-4.32296875 25.23832031 -4.3178125 23.94539063 -4.3125 22.61328125 C-4.3021875 21.93861816 -4.291875 21.26395508 -4.28125 20.56884766 C-4.25012014 18.50795359 -4.24028216 16.44782452 -4.234375 14.38671875 C-4.1539862 4.30797239 -4.1539862 4.30797239 -3 2 C-2.01 2 -1.02 2 0 2 C0 1.34 0 0.68 0 0 Z " fill="#4631A8" transform="translate(96,74)"/>
<path d="M0 0 C1.08087891 -0.02384766 2.16175781 -0.04769531 3.27539062 -0.07226562 C10.53821187 -0.05905249 15.69566958 1.18144641 21.5625 5.5625 C26.12835538 10.2454286 27.7798083 14.81850095 27.94824219 21.2956543 C27.99643097 22.98847786 27.99643097 22.98847786 28.04559326 24.71549988 C28.13509493 29.86713443 28.21746482 35.01843421 28.26269531 40.1706543 C28.28932407 42.88264729 28.34491994 45.59161074 28.42675781 48.30249023 C28.54515744 52.22630433 28.58010181 56.14868131 28.609375 60.07421875 C28.65471375 61.27559982 28.70005249 62.4769809 28.74676514 63.71476746 C28.71212246 70.6694064 27.65387212 74.26050373 22.75878906 79.34228516 C19.75210899 82.08834546 17.48742795 84.11973463 13.375 84.57421875 C12.116875 84.46722656 10.85875 84.36023438 9.5625 84.25 C8.28375 84.17136719 7.005 84.09273438 5.6875 84.01171875 C2.5625 83.5625 2.5625 83.5625 0.5625 82.5625 C0.5625 74.9725 0.5625 67.3825 0.5625 59.5625 C-2.4075 59.5625 -5.3775 59.5625 -8.4375 59.5625 C-8.33308594 60.54089844 -8.22867188 61.51929688 -8.12109375 62.52734375 C-7.70926503 69.17543594 -7.40113106 74.62866373 -11.9375 80 C-17.48737865 84.75703885 -23.32648402 84.36629989 -30.25390625 83.87890625 C-31.30449219 83.77449219 -32.35507813 83.67007813 -33.4375 83.5625 C-34.75342188 80.93065625 -34.60099682 78.9179103 -34.64624023 75.97045898 C-34.66553085 74.79841415 -34.68482147 73.62636932 -34.70469666 72.41880798 C-34.76241888 67.03630101 -34.81205858 61.6539587 -34.8425293 56.27124023 C-34.86027959 53.43581384 -34.89499154 50.60139392 -34.94506836 47.76635742 C-35.01722422 43.67611012 -35.03955082 39.5869389 -35.05859375 35.49609375 C-35.08642441 34.23639267 -35.11425507 32.97669159 -35.14292908 31.67881775 C-35.12410891 23.57886891 -33.76514561 18.71386335 -28.4375 12.5625 C-27.75945312 11.74136719 -27.08140625 10.92023437 -26.3828125 10.07421875 C-25.48175781 9.17123047 -25.48175781 9.17123047 -24.5625 8.25 C-23.96695313 7.63511719 -23.37140625 7.02023438 -22.7578125 6.38671875 C-15.49229451 0.67460275 -9.12990975 -0.09222131 0 0 Z M-21.25 10.625 C-24.2359662 14.63472604 -24.56176374 17.27102798 -24.55102539 22.13549805 C-24.55094986 23.27645432 -24.55087433 24.41741058 -24.55079651 25.59294128 C-24.54563522 26.82426285 -24.54047394 28.05558441 -24.53515625 29.32421875 C-24.5337413 30.58514847 -24.53232635 31.84607819 -24.53086853 33.1452179 C-24.52621575 36.49401709 -24.51723342 39.84274811 -24.50616455 43.19152832 C-24.49592687 46.61010143 -24.49136586 50.02868159 -24.48632812 53.44726562 C-24.47529099 60.15236261 -24.45854686 66.85742737 -24.4375 73.5625 C-22.29173363 73.58935938 -20.14587355 73.60883088 -18 73.625 C-16.80503906 73.63660156 -15.61007813 73.64820312 -14.37890625 73.66015625 C-11.54876659 73.90151792 -11.54876659 73.90151792 -10.4375 72.5625 C-10.35036169 70.85477642 -10.33049993 69.14351351 -10.33984375 67.43359375 C-10.34306641 66.39912109 -10.34628906 65.36464844 -10.34960938 64.29882812 C-10.35798828 63.21021484 -10.36636719 62.12160156 -10.375 61 C-10.37951172 59.90751953 -10.38402344 58.81503906 -10.38867188 57.68945312 C-10.4005016 54.98044568 -10.41843769 52.2714662 -10.4375 49.5625 C-3.5075 49.8925 3.4225 50.2225 10.5625 50.5625 C11.0575 61.9475 11.0575 61.9475 11.5625 73.5625 C15.8525 73.5625 20.1425 73.5625 24.5625 73.5625 C24.67584126 66.13847316 24.76740962 58.7149257 24.82156086 51.29021454 C24.84756206 47.84191019 24.88278189 44.39423271 24.93969727 40.94628906 C25.00484009 36.97468794 25.02875905 33.00333316 25.05078125 29.03125 C25.07658768 27.80386108 25.1023941 26.57647217 25.12898254 25.31188965 C25.13131653 18.13915533 24.4878098 13.00953226 19.5625 7.5625 C13.53096911 2.64388384 7.55917112 2.9568389 0 3.0625 C-1.66579102 3.03929687 -1.66579102 3.03929687 -3.36523438 3.015625 C-11.40167254 3.05409987 -16.08406237 4.14598123 -21.25 10.625 Z " fill="#4C3C9D" transform="translate(239.4375,32.4375)"/>
<path d="M0 0 C23.43 0 46.86 0 71 0 C70.67 0.66 70.34 1.32 70 2 C70.495 2.495 70.495 2.495 71 3 C71.495 4.485 71.495 4.485 72 6 C69.40401115 8.6539649 66.79688166 11.29670704 64.1875 13.9375 C63.44951172 14.69224609 62.71152344 15.44699219 61.95117188 16.22460938 C60.88286133 17.30258789 60.88286133 17.30258789 59.79296875 18.40234375 C59.1383667 19.06741943 58.48376465 19.73249512 57.80932617 20.41772461 C54.69594231 23.14041262 51.75809706 23.13941406 47.79418945 23.20532227 C46.73331619 23.22526749 45.67244293 23.24521271 44.579422 23.26576233 C42.86368233 23.29083107 42.86368233 23.29083107 41.11328125 23.31640625 C39.35506294 23.3475779 39.35506294 23.3475779 37.56132507 23.37937927 C33.81177714 23.44483818 30.06215837 23.50374296 26.3125 23.5625 C23.77277909 23.60568868 21.23306538 23.64930308 18.69335938 23.69335938 C12.46231118 23.80131804 6.23121031 23.90041928 0 24 C-0.33 37.53 -0.66 51.06 -1 65 C-2.98 65.495 -2.98 65.495 -5 66 C-5.06948567 58.09843395 -5.12280364 50.19699537 -5.15543652 42.29519939 C-5.17109805 38.62613324 -5.19234475 34.95727599 -5.22631836 31.28833008 C-5.25889514 27.74811053 -5.27684934 24.20809201 -5.28463173 20.66773415 C-5.29287924 18.65852345 -5.31630137 16.64939372 -5.33988953 14.64030457 C-5.34011612 13.41926529 -5.34034271 12.19822601 -5.34057617 10.94018555 C-5.34723801 9.86318893 -5.35389984 8.78619232 -5.36076355 7.67655945 C-5 5 -5 5 -3.60371399 3.1287384 C-2 2 -2 2 0 2 C0 1.34 0 0.68 0 0 Z " fill="#4630AA" transform="translate(96,145)"/>
<path d="M0 0 C38.61 0 77.22 0 117 0 C117 0.66 117 1.32 117 2 C118.32 2 119.64 2 121 2 C121 2.66 121 3.32 121 4 C121.66 4 122.32 4 123 4 C122.67 5.65 122.34 7.3 122 9 C121.44231556 8.6749605 120.88463112 8.349921 120.31004715 8.01503181 C117.68233785 6.86041965 115.90017423 6.75340388 113.03924561 6.75949097 C112.04294506 6.75673597 111.04664452 6.75398098 110.02015305 6.7511425 C108.38354155 6.76193683 108.38354155 6.76193683 106.71386719 6.77294922 C105.54374714 6.77270815 104.37362709 6.77246708 103.16804886 6.7722187 C99.37758043 6.77371237 95.58730828 6.78894786 91.796875 6.8046875 C89.45784602 6.80762776 87.11881572 6.80966831 84.77978516 6.81079102 C76.10317005 6.82128029 67.4265831 6.84920266 58.75 6.875 C39.3625 6.91625 19.975 6.9575 0 7 C-0.33 57.16 -0.66 107.32 -1 159 C-1.33 159 -1.66 159 -2 159 C-2 157.35 -2 155.7 -2 154 C-3.65 154.33 -5.3 154.66 -7 155 C-7.13258199 146.5484311 -7.26308261 138.09683338 -7.39115143 129.64519501 C-7.45072325 125.71787477 -7.51092898 121.79056671 -7.57275391 117.86328125 C-7.86018036 99.57432972 -8.08851159 81.29194226 -8 63 C-9.65 62.67 -11.3 62.34 -13 62 C-12.99476318 62.79656006 -12.98952637 63.59312012 -12.98413086 64.41381836 C-12.86655959 85.29834571 -13.24018882 106.12944187 -14 127 C-14.33 127 -14.66 127 -15 127 C-15 94.99 -15 62.98 -15 30 C-14.67 30 -14.34 30 -14 30 C-13.67 33.3 -13.34 36.6 -13 40 C-10.525 39.505 -10.525 39.505 -8 39 C-8.99 39.66 -9.98 40.32 -11 41 C-11.36558117 44.35503476 -11.36558117 44.35503476 -11.1875 48.125 C-11.16042969 49.40632813 -11.13335937 50.68765625 -11.10546875 52.0078125 C-11.05326172 53.48894531 -11.05326172 53.48894531 -11 55 C-10.01 55.33 -9.02 55.66 -8 56 C-8 51.71 -8 47.42 -8 43 C-6.68 42.34 -5.36 41.68 -4 41 C-4.020625 40.195625 -4.04125 39.39125 -4.0625 38.5625 C-4 36 -4 36 -3 35 C-2.84259395 33.29436222 -2.74906608 31.58272756 -2.68359375 29.87109375 C-2.64169922 28.83662109 -2.59980469 27.80214844 -2.55664062 26.73632812 C-2.51732422 25.64771484 -2.47800781 24.55910156 -2.4375 23.4375 C-2.39431641 22.34501953 -2.35113281 21.25253906 -2.30664062 20.12695312 C-2.20017932 17.41810436 -2.09816484 14.70916008 -2 12 C-2.66 12 -3.32 12 -4 12 C-4.33 12.66 -4.66 13.32 -5 14 C-5 9.50094529 -4.54501515 9.32809673 -2 6 C-1.34 4.02 -0.68 2.04 0 0 Z " fill="#4633A0" transform="translate(58,34)"/>
<path d="M0 0 C1.98 0.495 1.98 0.495 4 1 C4.33 22.45 4.66 43.9 5 66 C5.33 66 5.66 66 6 66 C6 79.86 6 93.72 6 108 C5.34 108 4.68 108 4 108 C4 118.23 4 128.46 4 139 C2.35 138.67 0.7 138.34 -1 138 C-1 127.11 -1 116.22 -1 105 C1.475 104.505 1.475 104.505 4 104 C4.33 103.01 4.66 102.02 5 101 C3.35 101 1.7 101 0 101 C0 67.67 0 34.34 0 0 Z " fill="#7669B2" transform="translate(39,62)"/>
<path d="M0 0 C0.66 0 1.32 0 2 0 C2.33 30.69 2.66 61.38 3 93 C5.97 92.505 5.97 92.505 9 92 C8.67 93.32 8.34 94.64 8 96 C6.68 96 5.36 96 4 96 C3.67 106.89 3.34 117.78 3 129 C2.01 129 1.02 129 0 129 C-0.05859888 132.83326795 -0.09379643 136.66641888 -0.125 140.5 C-0.15013672 142.11648437 -0.15013672 142.11648437 -0.17578125 143.765625 C-0.21294509 149.86049526 0.02701528 155.20521969 2 161 C2.66 161.33 3.32 161.66 4 162 C4 162.66 4 163.32 4 164 C1.53199953 162.84826645 -0.04783565 161.95216435 -2 160 C-2.24888897 157.58372402 -2.24888897 157.58372402 -2.24723816 154.48301697 C-2.25143265 153.31002548 -2.25562714 152.137034 -2.25994873 150.92849731 C-2.25432922 149.63459076 -2.24870972 148.3406842 -2.24291992 147.00756836 C-2.24399257 145.63585825 -2.24593099 144.26414858 -2.24867249 142.8924408 C-2.25353364 139.15595533 -2.24584398 135.41958873 -2.23571944 131.68311763 C-2.22693305 127.76193678 -2.22869668 123.84075961 -2.2290802 119.91957092 C-2.22814211 113.31769835 -2.21944828 106.71587158 -2.20581055 100.11401367 C-2.19018103 92.52077663 -2.18480905 84.9275901 -2.1855461 77.33433813 C-2.18622705 69.21923416 -2.17924442 61.10414926 -2.1700995 52.9890511 C-2.16798552 50.6707338 -2.16726063 48.35241966 -2.16686058 46.03410149 C-2.15209497 2.15209497 -2.15209497 2.15209497 0 0 Z " fill="#4632A2" transform="translate(35,71)"/>
<path d="M0 0 C0 2 0 4 0 6 C-0.99 6 -1.98 6 -3 6 C-3.12375 6.5775 -3.2475 7.155 -3.375 7.75 C-4.00648824 10.02335767 -4.88858191 11.9253529 -6 14 C-5.34 14.66 -4.68 15.32 -4 16 C-4.99 16.33 -5.98 16.66 -7 17 C-7 17.66 -7 18.32 -7 19 C-7.99 19.33 -8.98 19.66 -10 20 C-10 19.34 -10 18.68 -10 18 C-11.32 18 -12.64 18 -14 18 C-15.10836423 19.88316159 -15.10836423 19.88316159 -16 22 C-15.67 22.66 -15.34 23.32 -15 24 C-12.47266765 24.65555119 -12.47266765 24.65555119 -10 25 C-10.99 25.33 -11.98 25.66 -13 26 C-13 59.33 -13 92.66 -13 127 C-11.68 127.33 -10.36 127.66 -9 128 C-10.65 128 -12.3 128 -14 128 C-15.64773901 124.70452197 -15.12895725 121.04092836 -15.11352539 117.41943359 C-15.11367142 116.53156662 -15.11381744 115.64369965 -15.1139679 114.72892761 C-15.11326955 111.78540631 -15.10548081 108.84194779 -15.09765625 105.8984375 C-15.09579179 103.86105382 -15.09436802 101.82366969 -15.09336853 99.7862854 C-15.08954555 94.41702034 -15.07971711 89.04778223 -15.06866455 83.67852783 C-15.05844574 78.2023556 -15.0538699 72.72617902 -15.04882812 67.25 C-15.03809467 56.49998815 -15.02102085 45.74999631 -15 35 C-15.99 35.495 -15.99 35.495 -17 36 C-18.24792911 51.5755897 -18.21737335 67.17719426 -18.30332303 82.79184079 C-18.32546998 86.64216823 -18.35271565 90.49245984 -18.37937927 94.34275818 C-18.42892405 101.60598714 -18.47400155 108.86923641 -18.51740164 116.1325044 C-18.56710467 124.41329684 -18.62189813 132.69405327 -18.67708123 140.97481072 C-18.79031315 157.98317372 -18.89727584 174.99157035 -19 192 C-19.33 192 -19.66 192 -20 192 C-20.21045672 169.87728689 -20.36905448 147.75473938 -20.46630955 125.63122749 C-20.51267193 115.35830297 -20.57585359 105.08600126 -20.67895508 94.81347656 C-20.76879997 85.85748681 -20.82675683 76.90194819 -20.84679645 67.94552028 C-20.85850688 63.20504634 -20.88592806 58.46586275 -20.95157051 53.72580338 C-21.01292925 49.25863251 -21.03145172 44.79327591 -21.01796913 40.32572365 C-21.02043335 38.6914653 -21.03818075 37.05714264 -21.07284927 35.4232502 C-21.23335063 27.46468271 -21.22678039 21.43691305 -15.64146423 15.15939331 C-14.12418671 13.74029488 -12.57929082 12.34974514 -11 11 C-9.89513435 9.88200979 -8.79869818 8.75555906 -7.71484375 7.6171875 C-6.79832031 6.71226563 -5.88179687 5.80734375 -4.9375 4.875 C-4.45345703 4.39546875 -3.96941406 3.9159375 -3.47070312 3.421875 C-2.31621018 2.27881268 -1.15849487 1.13900617 0 0 Z " fill="#6B5DAA" transform="translate(52,36)"/>
<path d="M0 0 C1.32 0 2.64 0 4 0 C3.67 2.64 3.34 5.28 3 8 C2.01 8.33 1.02 8.66 0 9 C0.33 9.33 0.66 9.66 1 10 C1.66 10 2.32 10 3 10 C3.02887236 13.81248426 3.04675492 17.6249407 3.0625 21.4375 C3.07087891 22.52611328 3.07925781 23.61472656 3.08789062 24.73632812 C3.09272461 26.28803711 3.09272461 26.28803711 3.09765625 27.87109375 C3.10551147 29.30859985 3.10551147 29.30859985 3.11352539 30.77514648 C3 33 3 33 2 34 C1.95919217 35.99958364 1.95745644 38.00045254 2 40 C-0.475 40.495 -0.475 40.495 -3 41 C-3 45.29 -3 49.58 -3 54 C-4.32 53.67 -5.64 53.34 -7 53 C-7 48.38 -7 43.76 -7 39 C-7.66 39 -8.32 39 -9 39 C-9.06058594 38.24074219 -9.12117188 37.48148438 -9.18359375 36.69921875 C-9.26738281 35.70535156 -9.35117187 34.71148437 -9.4375 33.6875 C-9.55931641 32.20830078 -9.55931641 32.20830078 -9.68359375 30.69921875 C-9.91812559 27.90624401 -9.91812559 27.90624401 -11 25 C-12.65 25 -14.3 25 -16 25 C-16.66 23.68 -17.32 22.36 -18 21 C-17.01 19.68 -16.02 18.36 -15 17 C-12.69 17.66 -10.38 18.32 -8 19 C-8 18.34 -8 17.68 -8 17 C-7.34 16.67 -6.68 16.34 -6 16 C-6.66 15.01 -7.32 14.02 -8 13 C-6.68 10.69 -5.36 8.38 -4 6 C-3.01 6 -2.02 6 -1 6 C-1.33 5.01 -1.66 4.02 -2 3 C-1.34 2.01 -0.68 1.02 0 0 Z " fill="#4631AA" transform="translate(53,36)"/>
<path d="M0 0 C9.15351903 -0.11599585 18.30678396 -0.20476642 27.46087837 -0.25906086 C31.71181374 -0.28512343 35.96224523 -0.32045929 40.21289062 -0.37719727 C44.3172486 -0.43163796 48.42112281 -0.46144566 52.52581406 -0.47438622 C54.0895232 -0.48360463 55.65320669 -0.50160663 57.21670914 -0.52865028 C59.41213845 -0.56510422 61.60558488 -0.56993902 63.80126953 -0.56762695 C65.04925323 -0.57873001 66.29723694 -0.58983307 67.58303833 -0.60127258 C72.17667519 0.20705603 73.78126921 1.6536635 77 5 C77.60279837 7.99386632 77.82309754 10.16893006 77.76171875 13.15234375 C77.76508743 13.93009659 77.76845612 14.70784943 77.77192688 15.50917053 C77.77162878 17.14900342 77.75644934 18.78889307 77.72729492 20.4284668 C77.68766075 22.92736472 77.70657796 25.42093806 77.73242188 27.91992188 C77.72486053 29.5182496 77.7139048 31.11656561 77.69921875 32.71484375 C77.7096949 33.82604836 77.7096949 33.82604836 77.72038269 34.95970154 C77.56548469 40.70382556 75.99726992 43.15622403 72 47 C71.34 47 70.68 47 70 47 C70 46.34 70 45.68 70 45 C69.34 45 68.68 45 68 45 C69 43 69 43 70 42 C46.57 42 23.14 42 -1 42 C-1 42.66 -1 43.32 -1 44 C-1.66 44 -2.32 44 -3 44 C-3.33 44.99 -3.66 45.98 -4 47 C-4.66 47 -5.32 47 -6 47 C-6 66.47 -6 85.94 -6 106 C-6.33 106 -6.66 106 -7 106 C-7.1158896 97.98538021 -7.20471166 89.97111087 -7.25906086 81.95586014 C-7.28514706 78.2339441 -7.32052492 74.51260157 -7.37719727 70.79101562 C-7.43155547 67.19888431 -7.4614279 63.60730428 -7.47438622 60.0147934 C-7.48361959 58.64479645 -7.50165106 57.27482944 -7.52865028 55.90506744 C-7.56497896 53.98551401 -7.56704269 52.06540489 -7.56762695 50.14550781 C-7.57873001 49.05296692 -7.58983307 47.96042603 -7.60127258 46.83477783 C-7 44 -7 44 -4.91308594 41.64428711 C-1.29203838 39.60039209 1.02829076 39.51683566 5.17700195 39.54589844 C5.87998917 39.54531433 6.58297638 39.54473022 7.30726624 39.54412842 C9.61811661 39.54690293 11.9276578 39.5779621 14.23828125 39.609375 C15.8453857 39.61683971 17.45249927 39.62253156 19.05961609 39.62652588 C23.27993099 39.64176427 27.49969116 39.68103004 31.7197876 39.7253418 C36.02991228 39.76633359 40.340127 39.7845452 44.65039062 39.8046875 C53.10054278 39.84752669 61.55013837 39.91786129 70 40 C70 29.77 70 19.54 70 9 C70.33 9 70.66 9 71 9 C71.33 17.91 71.66 26.82 72 36 C72.99 35.67 73.98 35.34 75 35 C75 25.43 75 15.86 75 6 C74.01 5.67 73.02 5.34 72 5 C72.33 4.34 72.66 3.68 73 3 C70.36 3 67.72 3 65 3 C65 2.67 65 2.34 65 2 C43.55 1.67 22.1 1.34 0 1 C0 0.67 0 0.34 0 0 Z " fill="#55459E" transform="translate(97,103)"/>
<path d="M0 0 C0.89460937 -0.00128906 1.78921875 -0.00257812 2.7109375 -0.00390625 C3.65195313 -0.00003906 4.59296875 0.00382812 5.5625 0.0078125 C6.97402344 0.00201172 6.97402344 0.00201172 8.4140625 -0.00390625 C9.75597656 -0.00197266 9.75597656 -0.00197266 11.125 0 C11.95128906 0.00112793 12.77757812 0.00225586 13.62890625 0.00341797 C15.5625 0.1328125 15.5625 0.1328125 16.5625 1.1328125 C16.68913091 3.95697632 16.74770548 6.74576043 16.75 9.5703125 C16.76224609 10.35986328 16.77449219 11.14941406 16.78710938 11.96289062 C16.79237279 14.02088685 16.68456285 16.07843259 16.5625 18.1328125 C14.5625 20.1328125 14.5625 20.1328125 12.60717773 20.37573242 C11.82802002 20.37162354 11.0488623 20.36751465 10.24609375 20.36328125 C9.39982422 20.36134766 8.55355469 20.35941406 7.68164062 20.35742188 C6.35422852 20.33905273 6.35422852 20.33905273 5 20.3203125 C4.11119141 20.31966797 3.22238281 20.31902344 2.30664062 20.31835938 C-4.29728903 20.27302347 -4.29728903 20.27302347 -5.4375 19.1328125 C-5.5358721 17.80237625 -5.56828592 16.46687906 -5.5703125 15.1328125 C-5.57160156 14.3284375 -5.57289063 13.5240625 -5.57421875 12.6953125 C-5.57035156 11.8496875 -5.56648437 11.0040625 -5.5625 10.1328125 C-5.56636719 9.2871875 -5.57023438 8.4415625 -5.57421875 7.5703125 C-5.57292969 6.7659375 -5.57164062 5.9615625 -5.5703125 5.1328125 C-5.56918457 4.3903125 -5.56805664 3.6478125 -5.56689453 2.8828125 C-5.30304226 -0.68566503 -3.04218604 0.00415275 0 0 Z " fill="#524495" transform="translate(234.4375,48.8671875)"/>
<path d="M0 0 C-0.01160156 0.71027344 -0.02320313 1.42054687 -0.03515625 2.15234375 C-0.04417969 3.07144531 -0.05320313 3.99054687 -0.0625 4.9375 C-0.07410156 5.85402344 -0.08570313 6.77054687 -0.09765625 7.71484375 C-0.25949049 9.96593327 -0.25949049 9.96593327 1 11 C1.16010481 13.73701178 1.25946828 16.4516759 1.31640625 19.19140625 C1.33718735 20.01124496 1.35796844 20.83108368 1.37937927 21.67576599 C1.44496494 24.30458901 1.50380126 26.93351504 1.5625 29.5625 C1.60567667 31.34050561 1.64929067 33.11850065 1.69335938 34.89648438 C1.80065543 39.26421634 1.90189704 43.63205227 2 48 C5.96 48 9.92 48 14 48 C14 49.32 14 50.64 14 52 C13.34 52 12.68 52 12 52 C11.855625 52.804375 11.71125 53.60875 11.5625 54.4375 C11 57 11 57 10 58 C7.30345146 58.07319621 4.63308542 58.09242537 1.9375 58.0625 C0.79958008 58.05573242 0.79958008 58.05573242 -0.36132812 58.04882812 C-2.24091871 58.0370068 -4.12046899 58.01907078 -6 58 C-6.02686553 56.02090602 -6.04633375 54.04171029 -6.0625 52.0625 C-6.07410156 50.96035156 -6.08570313 49.85820313 -6.09765625 48.72265625 C-6 46 -6 46 -5 45 C-4.95936168 43.33382885 -4.957279 41.66611905 -5 40 C-4.34 40 -3.68 40 -3 40 C-2.67 41.32 -2.34 42.64 -2 44 C-1.34 44 -0.68 44 0 44 C0 43.34 0 42.68 0 42 C-0.66 42 -1.32 42 -2 42 C-2.33 40.68 -2.66 39.36 -3 38 C-3.66 38 -4.32 38 -5 38 C-5.07414321 33.07042741 -5.12859817 28.14117919 -5.16479492 23.21118164 C-5.17988384 21.5340408 -5.20035748 19.85693943 -5.22631836 18.17993164 C-5.26269811 15.76959496 -5.27972486 13.35977981 -5.29296875 10.94921875 C-5.30845261 10.19912033 -5.32393646 9.44902191 -5.33988953 8.67619324 C-5.34156728 3.48951792 -5.34156728 3.48951792 -3.60668945 1.00317383 C-2 0 -2 0 0 0 Z " fill="#503DA7" transform="translate(212,58)"/>
<path d="M0 0 C20.46 0 40.92 0 62 0 C62 1.65 62 3.3 62 5 C60.24481894 6.75518106 57.77650285 6.12760783 55.39453125 6.12939453 C54.19658936 6.13254669 52.99864746 6.13569885 51.7644043 6.13894653 C50.46027588 6.1369223 49.15614746 6.13489807 47.8125 6.1328125 C46.47110985 6.1334856 45.12971981 6.13445568 43.78833008 6.13571167 C40.97378379 6.13718836 38.15926918 6.13503504 35.34472656 6.13037109 C31.72959369 6.12467381 28.11453505 6.12795297 24.49940491 6.13394356 C21.72855058 6.13754997 18.95771398 6.13641022 16.18685913 6.13381577 C14.20310417 6.13282033 12.21934853 6.13586741 10.2355957 6.13894653 C9.03765381 6.13579437 7.83971191 6.13264221 6.60546875 6.12939453 C5.54481201 6.12859894 4.48415527 6.12780334 3.39135742 6.12698364 C1 6 1 6 0 5 C0 3.35 0 1.7 0 0 Z " fill="#8275BA" transform="translate(205,130)"/>
<path d="M0 0 C1.32 0 2.64 0 4 0 C4 31.02 4 62.04 4 94 C3.01 94 2.02 94 1 94 C-0.32503792 75.45843212 -0.11798183 56.89929444 -0.06866455 38.32312012 C-0.05828698 33.9914601 -0.05383654 29.65979396 -0.04882812 25.328125 C-0.03822258 16.88540023 -0.02124018 8.4427047 0 0 Z " fill="#E8E2F4" transform="translate(46,97)"/>
<path d="M0 0 C6.93 0 13.86 0 21 0 C21 7.59 21 15.18 21 23 C20.01 23 19.02 23 18 23 C17.855625 21.906875 17.71125 20.81375 17.5625 19.6875 C17.11711896 16.06877013 17.11711896 16.06877013 16 13 C15.34 13 14.68 13 14 13 C14.10699219 13.81984375 14.21398437 14.6396875 14.32421875 15.484375 C14.44410156 16.56203125 14.56398437 17.6396875 14.6875 18.75 C14.81511719 19.81734375 14.94273437 20.8846875 15.07421875 21.984375 C15 25 15 25 12 29 C12 22.73 12 16.46 12 10 C8.7 10 5.4 10 2 10 C2.08121094 11.01320313 2.16242188 12.02640625 2.24609375 13.0703125 C2.84135309 23.74113335 2.84135309 23.74113335 0.44140625 27.33203125 C-1.31120891 28.78137699 -2.97857644 29.96350475 -5 31 C-5 30.01 -5 29.02 -5 28 C-4.34 28 -3.68 28 -3 28 C-3 26.68 -3 25.36 -3 24 C-2.34 23.67 -1.68 23.34 -1 23 C-0.67 15.41 -0.34 7.82 0 0 Z " fill="#47378E" transform="translate(229,82)"/>
<path d="M0 0 C1.99543781 3.32892127 2.24410241 5.83285595 2.22705078 9.68652344 C2.22682419 11.39784454 2.22682419 11.39784454 2.22659302 13.14373779 C2.21627045 14.36989807 2.20594788 15.59605835 2.1953125 16.859375 C2.1924826 18.11888977 2.18965271 19.37840454 2.18673706 20.67608643 C2.17744121 24.01673902 2.15948583 27.35711669 2.1373291 30.69769287 C2.11683208 34.10963572 2.10772712 37.52160702 2.09765625 40.93359375 C2.07559907 47.62247168 2.04212367 54.31121997 2 61 C1.67 61 1.34 61 1 61 C0.24493736 56.24557787 -0.15074409 51.6356846 -0.24609375 46.82421875 C-0.27897769 45.48892439 -0.31219008 44.15363809 -0.34570312 42.81835938 C-0.39337753 40.74019976 -0.43797486 38.66208486 -0.47680664 36.58374023 C-0.51637588 34.55954843 -0.56853789 32.53561501 -0.62109375 30.51171875 C-0.6461499 29.30990967 -0.67120605 28.10810059 -0.69702148 26.86987305 C-0.70939476 23.87129809 -0.70939476 23.87129809 -3 22 C-2.34 22 -1.68 22 -1 22 C-1 19.03 -1 16.06 -1 13 C-1.66 13 -2.32 13 -3 13 C-3.33 13.99 -3.66 14.98 -4 16 C-4.66 16 -5.32 16 -6 16 C-6 27.55 -6 39.1 -6 51 C-5.34 51 -4.68 51 -4 51 C-4 42.75 -4 34.5 -4 26 C-3.67 26 -3.34 26 -3 26 C-3 35.57 -3 45.14 -3 55 C-2.34 55 -1.68 55 -1 55 C-1 55.66 -1 56.32 -1 57 C-2.485 57.495 -2.485 57.495 -4 58 C-4 56.35 -4 54.7 -4 53 C-4.66 53 -5.32 53 -6 53 C-5.67 54.98 -5.34 56.96 -5 59 C-5.66 59 -6.32 59 -7 59 C-7 62.3 -7 65.6 -7 69 C-7.33 69 -7.66 69 -8 69 C-8.09286256 61.2807204 -8.16384714 53.56149905 -8.20724869 45.84178734 C-8.22808423 42.25679099 -8.25632651 38.67217806 -8.30175781 35.08740234 C-8.34536192 31.6249581 -8.36916743 28.16288159 -8.37950897 24.70018387 C-8.39044821 22.74257518 -8.42165128 20.78511352 -8.45318604 18.82772827 C-8.4559709 7.75927303 -8.4559709 7.75927303 -4 3 C-1.75 1.125 -1.75 1.125 0 0 Z " fill="#493996" transform="translate(213,45)"/>
<path d="M0 0 C1.08990234 -0.02835938 2.17980469 -0.05671875 3.30273438 -0.0859375 C10.61643875 -0.10352909 15.7832563 1.07263589 21.6875 5.5 C26.33245382 10.2640552 27.94328456 14.79744347 27.91455078 21.3918457 C27.91439972 22.55267166 27.91424866 23.71349762 27.91409302 24.90950012 C27.90377045 26.15237289 27.89344788 27.39524567 27.8828125 28.67578125 C27.8799826 29.95607712 27.87715271 31.23637299 27.87423706 32.5554657 C27.8666278 35.94703075 27.84700293 39.3384225 27.8248291 42.72991943 C27.80431206 46.19557349 27.79522286 49.66125575 27.78515625 53.12695312 C27.76311492 59.91804366 27.72965129 66.70900612 27.6875 73.5 C26.6975 73.17 25.7075 72.84 24.6875 72.5 C24.68203156 71.45216591 24.68203156 71.45216591 24.67645264 70.38316345 C24.63847666 63.77752475 24.58151612 57.17234863 24.50359726 50.56705379 C24.4642042 47.1717183 24.43197635 43.77663895 24.41650391 40.38110352 C24.39836582 36.47118316 24.34837836 32.56197244 24.296875 28.65234375 C24.29564636 27.44166733 24.29441772 26.23099091 24.29315186 24.98362732 C24.17750863 18.29406811 23.78111303 13.89221227 19.6875 8.5 C13.64798403 3.59836385 7.67623643 3.89444981 0.125 4 C-1.54079102 3.97679687 -1.54079102 3.97679687 -3.24023438 3.953125 C-9.55845475 3.98337381 -13.5442985 4.21176598 -18.3125 8.5 C-20.76113311 11.21335021 -22.1559789 13.03043669 -23.3125 16.5 C-23.9725 16.5 -24.6325 16.5 -25.3125 16.5 C-25.6425 15.51 -25.9725 14.52 -26.3125 13.5 C-28.2925 14.49 -28.2925 14.49 -30.3125 15.5 C-21.48695836 4.64020231 -14.27600719 -0.03341371 0 0 Z " fill="#5D5390" transform="translate(239.3125,32.5)"/>
<path d="M0 0 C0.99 0 1.98 0 3 0 C3 33 3 66 3 100 C2.01 100 1.02 100 0 100 C0 67 0 34 0 0 Z " fill="#FAF5FE" transform="translate(39,62)"/>
<path d="M0 0 C0.33 0 0.66 0 1 0 C1.33 9.24 1.66 18.48 2 28 C4.95498007 29.47749003 7.63003769 29.16565337 10.92822266 29.20532227 C11.99667671 29.22017166 11.99667671 29.22017166 13.0867157 29.23532104 C15.44579726 29.26695858 17.80489897 29.2917023 20.1640625 29.31640625 C21.79788747 29.33697384 23.43170708 29.35797026 25.06552124 29.37937927 C29.36942216 29.43462013 33.67337126 29.4840205 37.97735596 29.53222656 C42.36776018 29.5824269 46.75809429 29.63812061 51.1484375 29.69335938 C59.76556575 29.80096558 68.38275258 29.90240506 77 30 C78.46098845 32.9219769 78.11134901 35.49893475 78.09765625 38.7578125 C78.0962413 39.42086395 78.09482635 40.08391541 78.09336853 40.76705933 C78.08776754 42.88641863 78.075215 45.00567259 78.0625 47.125 C78.05748512 48.56119639 78.05292219 49.99739444 78.04882812 51.43359375 C78.03779782 54.95576345 78.02053259 58.47787145 78 62 C77.67 62 77.34 62 77 62 C76.67 52.43 76.34 42.86 76 33 C73.80432373 32.98541748 71.60864746 32.97083496 69.34643555 32.95581055 C62.09794192 32.90550956 54.84966413 32.83892267 47.60138226 32.76428509 C43.20603449 32.71952682 38.81078059 32.68028294 34.4152832 32.65356445 C30.174634 32.6275856 25.93434495 32.58722224 21.69391823 32.53681374 C20.07482184 32.5201082 18.45566311 32.50861692 16.83649254 32.50238609 C14.57119217 32.49278469 12.30682086 32.46477514 10.04174805 32.43237305 C8.75157272 32.42126999 7.4613974 32.41016693 6.13212585 32.39872742 C3 32 3 32 1.08117676 30.66064453 C-0.66426003 27.979723 -0.33427515 25.51633624 -0.29296875 22.36328125 C-0.2784668 20.41518555 -0.2784668 20.41518555 -0.26367188 18.42773438 C-0.23860585 17.05598361 -0.21321101 15.68423882 -0.1875 14.3125 C-0.1724502 12.92905076 -0.1587623 11.54558599 -0.14648438 10.16210938 C-0.11107223 6.77434793 -0.06168054 3.38736861 0 0 Z " fill="#4C3C95" transform="translate(91,79)"/>
<path d="M0 0 C0.80052292 -0.00058411 1.60104584 -0.00116821 2.42582703 -0.00177002 C5.0612688 0.00100782 7.69556735 0.03208456 10.33081055 0.06347656 C12.16211835 0.07094004 13.99343415 0.07663247 15.82475281 0.08062744 C20.63687317 0.09587535 25.44850803 0.13514987 30.26043701 0.17944336 C35.17380201 0.22041427 40.08724571 0.23864234 45.00073242 0.25878906 C54.63571096 0.30164496 64.2703297 0.36988608 73.9050293 0.45410156 C73.9050293 1.11410156 73.9050293 1.77410156 73.9050293 2.45410156 C47.1750293 2.45410156 20.4450293 2.45410156 -7.0949707 2.45410156 C-7.0949707 3.11410156 -7.0949707 3.77410156 -7.0949707 4.45410156 C-8.0849707 4.45410156 -9.0749707 4.45410156 -10.0949707 4.45410156 C-11.1956783 7.75622436 -11.30124142 10.39493435 -11.41137695 13.87207031 C-11.45327148 15.12568359 -11.49516602 16.37929687 -11.53833008 17.67089844 C-11.57764648 18.98123047 -11.61696289 20.2915625 -11.6574707 21.64160156 C-11.70068062 22.97690135 -11.7442957 24.31218809 -11.78833008 25.64746094 C-11.89453572 28.91623453 -11.99658067 32.18508489 -12.0949707 35.45410156 C-12.4249707 35.45410156 -12.7549707 35.45410156 -13.0949707 35.45410156 C-13.21878597 31.11256696 -13.30940628 26.7719732 -13.36962891 22.42919922 C-13.39473807 20.95278011 -13.42883326 19.47648488 -13.47216797 18.00048828 C-13.53298871 15.87534017 -13.5612128 13.75183762 -13.58325195 11.62597656 C-13.60943604 10.34819336 -13.63562012 9.07041016 -13.66259766 7.75390625 C-13.0949707 4.45410156 -13.0949707 4.45410156 -11.06542969 2.27624512 C-7.31948787 -0.02159632 -4.25906987 -0.08179944 0 0 Z " fill="#6C5FA5" transform="translate(103.094970703125,71.5458984375)"/>
<path d="M0 0 C0.66 0.33 1.32 0.66 2 1 C2 32.02 2 63.04 2 95 C2.99 95.33 3.98 95.66 5 96 C2.525 96.495 2.525 96.495 0 97 C-0.33 99.31 -0.66 101.62 -1 104 C-1.33 104 -1.66 104 -2 104 C-2 94.1 -2 84.2 -2 74 C-1.34 74 -0.68 74 0 74 C0 49.58 0 25.16 0 0 Z " fill="#483890" transform="translate(45,96)"/>
<path d="M0 0 C0.66 0.33 1.32 0.66 2 1 C2 1.99 2 2.98 2 4 C-1.00366514 5.00122171 -2.97739593 5.12112011 -6.11401367 5.11352539 C-7.15486618 5.11344986 -8.19571869 5.11337433 -9.26811218 5.11329651 C-10.39006485 5.10813522 -11.51201752 5.10297394 -12.66796875 5.09765625 C-14.39289299 5.09553383 -14.39289299 5.09553383 -16.15266418 5.09336853 C-19.83096908 5.08776429 -23.50921345 5.07521104 -27.1875 5.0625 C-29.67903558 5.05748555 -32.17057211 5.05292255 -34.66210938 5.04882812 C-40.77476029 5.03779347 -46.88737582 5.02105118 -53 5 C-52.67 4.01 -52.34 3.02 -52 2 C-41.74227568 0.76958152 -31.66541578 1.10808187 -21.375 1.5 C-18.90843467 1.59192468 -16.44187905 1.6817315 -13.9750061 1.76501465 C-12.45234024 1.81654446 -10.92983323 1.87307 -9.40756226 1.93518066 C-5.57995915 2.14832395 -5.57995915 2.14832395 -2 1 C-1.34 1.33 -0.68 1.66 0 2 C0 1.34 0 0.68 0 0 Z " fill="#4D3C9A" transform="translate(150,163)"/>
<path d="M0 0 C0 13.86 0 27.72 0 42 C-0.66 42 -1.32 42 -2 42 C-2.33 40.68 -2.66 39.36 -3 38 C-3.66 38 -4.32 38 -5 38 C-5.07414321 33.07042741 -5.12859817 28.14117919 -5.16479492 23.21118164 C-5.17988384 21.5340408 -5.20035748 19.85693943 -5.22631836 18.17993164 C-5.26269811 15.76959496 -5.27972486 13.35977981 -5.29296875 10.94921875 C-5.30845261 10.19912033 -5.32393646 9.44902191 -5.33988953 8.67619324 C-5.34156728 3.48951792 -5.34156728 3.48951792 -3.60668945 1.00317383 C-2 0 -2 0 0 0 Z " fill="#B8AEDC" transform="translate(212,58)"/>
<path d="M0 0 C1.670625 0.061875 1.670625 0.061875 3.375 0.125 C3.375 1.115 3.375 2.105 3.375 3.125 C5.025 3.455 6.675 3.785 8.375 4.125 C7.715 4.785 7.055 5.445 6.375 6.125 C6.375 5.465 6.375 4.805 6.375 4.125 C5.715 4.125 5.055 4.125 4.375 4.125 C4.705 7.095 5.035 10.065 5.375 13.125 C6.695 12.795 8.015 12.465 9.375 12.125 C9.705 12.785 10.035 13.445 10.375 14.125 C7.49084117 15.56707941 4.95778472 15.21894887 1.75 15.1875 C0.56148437 15.17847656 -0.62703125 15.16945313 -1.8515625 15.16015625 C-2.76679688 15.14855469 -3.68203125 15.13695313 -4.625 15.125 C-4.84634176 13.00131556 -5.05170007 10.87595976 -5.25 8.75 C-5.36601562 7.56664062 -5.48203125 6.38328125 -5.6015625 5.1640625 C-5.60929688 4.16117188 -5.61703125 3.15828125 -5.625 2.125 C-3.625 0.125 -3.625 0.125 0 0 Z " fill="#4936A4" transform="translate(235.625,50.875)"/>
<path d="M0 0 C9.15351903 -0.11599585 18.30678396 -0.20476642 27.46087837 -0.25906086 C31.71181374 -0.28512343 35.96224523 -0.32045929 40.21289062 -0.37719727 C44.3172486 -0.43163796 48.42112281 -0.46144566 52.52581406 -0.47438622 C54.0895232 -0.48360463 55.65320669 -0.50160663 57.21670914 -0.52865028 C59.41213845 -0.56510422 61.60558488 -0.56993902 63.80126953 -0.56762695 C65.04925323 -0.57873001 66.29723694 -0.58983307 67.58303833 -0.60127258 C72.17667519 0.20705603 73.78126921 1.6536635 77 5 C77.60279837 7.99386632 77.82309754 10.16893006 77.76171875 13.15234375 C77.76508743 13.93009659 77.76845612 14.70784943 77.77192688 15.50917053 C77.77162878 17.14900342 77.75644934 18.78889307 77.72729492 20.4284668 C77.68766075 22.92736472 77.70657796 25.42093806 77.73242188 27.91992188 C77.72486053 29.5182496 77.7139048 31.11656561 77.69921875 32.71484375 C77.7096949 33.82604836 77.7096949 33.82604836 77.72038269 34.95970154 C77.56540454 40.70679776 75.94260589 43.11471609 72 47 C71.67 47 71.34 47 71 47 C71 45.35 71 43.7 71 42 C71.99 42 72.98 42 74 42 C75.18975795 38.43072615 75.12478155 35.20053028 75.09765625 31.48828125 C75.0962413 30.76005661 75.09482635 30.03183197 75.09336853 29.28153992 C75.08777659 26.95848461 75.07522562 24.63552612 75.0625 22.3125 C75.05748396 20.73632952 75.05292123 19.16015752 75.04882812 17.58398438 C75.0378098 13.72261902 75.02055074 9.86132592 75 6 C74.01 5.67 73.02 5.34 72 5 C72.33 4.34 72.66 3.68 73 3 C70.36 3 67.72 3 65 3 C65 2.67 65 2.34 65 2 C43.55 1.67 22.1 1.34 0 1 C0 0.67 0 0.34 0 0 Z " fill="#7A6DB4" transform="translate(97,103)"/>
<path d="M0 0 C2 2 2 2 2.22705078 5.53173828 C2.22673363 7.04463331 2.21540633 8.55755088 2.1953125 10.0703125 C2.1924826 10.86654022 2.18965271 11.66276794 2.18673706 12.48312378 C2.1755264 15.03056763 2.15042062 17.57766211 2.125 20.125 C2.11497133 21.85025535 2.10584528 23.57551619 2.09765625 25.30078125 C2.07558422 29.53398914 2.04104867 33.7669353 2 38 C2.66 38 3.32 38 4 38 C4 29.75 4 21.5 4 13 C4.33 13 4.66 13 5 13 C5 22.57 5 32.14 5 42 C5.66 42 6.32 42 7 42 C7 42.66 7 43.32 7 44 C5.515 44.495 5.515 44.495 4 45 C4 43.35 4 41.7 4 40 C3.34 40 2.68 40 2 40 C2.33 41.98 2.66 43.96 3 46 C2.34 46 1.68 46 1 46 C1 49.3 1 52.6 1 56 C0.67 56 0.34 56 0 56 C0 37.52 0 19.04 0 0 Z " fill="#4B3F84" transform="translate(205,58)"/>
<path d="M0 0 C0.33 0 0.66 0 1 0 C1.33 8.91 1.66 17.82 2 27 C2.99 26.67 3.98 26.34 5 26 C4.67 28.31 4.34 30.62 4 33 C3.01 33 2.02 33 1 33 C1 34.65 1 36.3 1 38 C0.67 37.34 0.34 36.68 0 36 C-0.66 36 -1.32 36 -2 36 C-1.505 35.01 -1.505 35.01 -1 34 C-2.87124497 32.12875503 -6.04198478 32.8259501 -8.53930664 32.79467773 C-9.22220261 32.78477814 -9.90509857 32.77487854 -10.60868835 32.76467896 C-12.87580853 32.73298065 -15.14294969 32.70827387 -17.41015625 32.68359375 C-18.97815001 32.6630314 -20.54613813 32.64203512 -22.11412048 32.62062073 C-26.24870248 32.56532576 -30.38333511 32.51594938 -34.51800537 32.46777344 C-38.73405483 32.41761247 -42.95003043 32.36189826 -47.16601562 32.30664062 C-55.44394803 32.1989683 -63.72194208 32.09754365 -72 32 C-72 31.67 -72 31.34 -72 31 C-48.24 31 -24.48 31 0 31 C0 20.77 0 10.54 0 0 Z " fill="#5F5390" transform="translate(167,112)"/>
<path d="M0 0 C4.13638445 0.02967277 7.46025706 0.56550297 11.3125 2.1875 C10.9825 4.4975 10.6525 6.8075 10.3125 9.1875 C7.3425 8.6925 7.3425 8.6925 4.3125 8.1875 C4.3125 8.5175 4.3125 8.8475 4.3125 9.1875 C1.3425 9.1875 -1.6275 9.1875 -4.6875 9.1875 C-5.0175 9.8475 -5.3475 10.5075 -5.6875 11.1875 C-5.71438151 9.54175434 -5.73384123 7.89588587 -5.75 6.25 C-5.76160156 5.33347656 -5.77320313 4.41695313 -5.78515625 3.47265625 C-5.60943485 -0.63922459 -3.62697578 0.02710744 0 0 Z " fill="#4B37A5" transform="translate(235.6875,82.8125)"/>
<path d="M0 0 C7.26 0 14.52 0 22 0 C21.01 0.495 21.01 0.495 20 1 C20 1.99 20 2.98 20 4 C24.64586892 3.51515724 24.64586892 3.51515724 29 2 C30.98828125 2.12109375 30.98828125 2.12109375 33.3125 2.4375 C36.57198498 2.84756424 39.70830052 3.10618385 43 3 C43 3.66 43 4.32 43 5 C33.76 5 24.52 5 15 5 C15.99 4.67 16.98 4.34 18 4 C18 3.34 18 2.68 18 2 C16.35 2.33 14.7 2.66 13 3 C13 3.66 13 4.32 13 5 C8.71 5 4.42 5 0 5 C0 3.35 0 1.7 0 0 Z " fill="#5F539A" transform="translate(205,130)"/>
<path d="M0 0 C0.33 0 0.66 0 1 0 C1 7.59 1 15.18 1 23 C-0.32 23 -1.64 23 -3 23 C-3.82638376 25.89234315 -4 27.88742431 -4 31 C-5.32 30.67 -6.64 30.34 -8 30 C-8 30.66 -8 31.32 -8 32 C-8.66 32 -9.32 32 -10 32 C-10 24.41 -10 16.82 -10 9 C-9.67 9 -9.34 9 -9 9 C-8.67 13.95 -8.34 18.9 -8 24 C-6.71387324 22.94021067 -6.71387324 22.94021067 -6.90234375 20.49609375 C-6.91394531 19.48675781 -6.92554688 18.47742188 -6.9375 17.4375 C-6.94652344 16.42558594 -6.95554688 15.41367188 -6.96484375 14.37109375 C-6.97644531 13.58863281 -6.98804688 12.80617188 -7 12 C-5.68 11.67 -4.36 11.34 -3 11 C-3 14.63 -3 18.26 -3 22 C-2.01 22 -1.02 22 0 22 C0 14.74 0 7.48 0 0 Z " fill="#6D5EB1" transform="translate(250,83)"/>
<path d="M0 0 C0.33 0 0.66 0 1 0 C1.07416805 6.0505912 1.12861087 12.10091765 1.16479492 18.15185547 C1.1798795 20.21017059 1.20034987 22.26845358 1.22631836 24.32666016 C1.26271585 27.28556244 1.27972966 30.24403967 1.29296875 33.203125 C1.30845261 34.12305237 1.32393646 35.04297974 1.33988953 35.99078369 C1.34158031 42.41229952 1.34158031 42.41229952 -0.51831055 45.61230469 C-1.00726807 46.07024414 -1.49622559 46.52818359 -2 47 C-3.32 46.67 -4.64 46.34 -6 46 C-6.33 44.68 -6.66 43.36 -7 42 C-6.01 41.505 -6.01 41.505 -5 41 C-5 41.66 -5 42.32 -5 43 C-3.02 42.505 -3.02 42.505 -1 42 C-1.00523682 40.7632251 -1.01047363 39.5264502 -1.01586914 38.25219727 C-1.03391561 33.68075275 -1.04543071 29.10931141 -1.05493164 24.5378418 C-1.05997267 22.55606559 -1.06680538 20.57429311 -1.07543945 18.5925293 C-1.08751515 15.75047891 -1.09323045 12.90847753 -1.09765625 10.06640625 C-1.10281754 9.17474258 -1.10797882 8.28307892 -1.11329651 7.36439514 C-1.11349177 5.24259399 -1.0621003 3.1208922 -1 1 C-0.67 0.67 -0.34 0.34 0 0 Z " fill="#4A3B8F" transform="translate(96,168)"/>
<path d="M0 0 C1.9078584 3.1749094 2.1609041 5.10585211 1.625 8.75 C1.45871094 9.94882812 1.45871094 9.94882812 1.2890625 11.171875 C1.14597656 12.07679687 1.14597656 12.07679687 1 13 C-3.75 14 -3.75 14 -6 14 C-6.33 11.03 -6.66 8.06 -7 5 C-6.01 5 -5.02 5 -4 5 C-5.32 4.67 -6.64 4.34 -8 4 C-8 3.01 -8 2.02 -8 1 C-5.07175348 0.02391783 -3.04386724 -0.08226668 0 0 Z " fill="#4631A8" transform="translate(247,50)"/>
<path d="M0 0 C0.99 0 1.98 0 3 0 C3 10.89 3 21.78 3 33 C2.01 33 1.02 33 0 33 C0 22.11 0 11.22 0 0 Z " fill="#FCF7FF" transform="translate(39,168)"/>
<path d="M0 0 C0 2 0 4 0 6 C-0.99 6 -1.98 6 -3 6 C-3.12375 6.5775 -3.2475 7.155 -3.375 7.75 C-4.00648824 10.02335767 -4.88858191 11.9253529 -6 14 C-5.34 14.66 -4.68 15.32 -4 16 C-4.99 16.33 -5.98 16.66 -7 17 C-7 17.66 -7 18.32 -7 19 C-7.99 19.33 -8.98 19.66 -10 20 C-10 19.34 -10 18.68 -10 18 C-13.96 18.495 -13.96 18.495 -18 19 C-12.44964797 12.21623641 -6.23557973 6.14477032 0 0 Z " fill="#4F3DA4" transform="translate(52,36)"/>
<path d="M0 0 C0 0.33 0 0.66 0 1 C5.28 1.33 10.56 1.66 16 2 C16 2.33 16 2.66 16 3 C15.39526855 3.0093457 14.79053711 3.01869141 14.16748047 3.02832031 C11.4025212 3.08231722 8.63920094 3.16590394 5.875 3.25 C4.44800781 3.27126953 4.44800781 3.27126953 2.9921875 3.29296875 C-2.96141616 3.4996911 -6.43795177 4.08864011 -11 8 C-13.44863311 10.71335021 -14.8434789 12.53043669 -16 16 C-16.66 16 -17.32 16 -18 16 C-18.33 15.01 -18.66 14.02 -19 13 C-20.98 13.99 -20.98 13.99 -23 15 C-10.08652325 -0.88998735 -10.08652325 -0.88998735 0 0 Z " fill="#60559C" transform="translate(232,33)"/>
<path d="M0 0 C0.99 0.495 0.99 0.495 2 1 C1.99555878 1.74644775 1.99111755 2.49289551 1.98654175 3.26196289 C1.94633867 10.32320771 1.91595167 17.38441237 1.89637566 24.44573975 C1.88597285 28.07536737 1.87187832 31.7048998 1.84912109 35.33447266 C1.82726688 38.8422844 1.81540507 42.35000503 1.81024551 45.85787964 C1.80479398 47.83635465 1.78920142 49.81479341 1.77340698 51.79321289 C1.77261606 58.18430532 1.87704341 63.93387744 4 70 C4.66 70.33 5.32 70.66 6 71 C6 71.66 6 72.32 6 73 C3.53199953 71.84826645 1.95216435 70.95216435 0 69 C-0.24050903 66.13998413 -0.24050903 66.13998413 -0.22705078 62.43896484 C-0.22734283 61.76567642 -0.22763489 61.092388 -0.22793579 60.3986969 C-0.22654047 58.16931346 -0.21097016 55.94026268 -0.1953125 53.7109375 C-0.19158308 52.16680077 -0.18873577 50.62266167 -0.18673706 49.07852173 C-0.17909499 45.01124557 -0.15944168 40.94411189 -0.1373291 36.87689209 C-0.11688296 32.7278435 -0.10773799 28.57877193 -0.09765625 24.4296875 C-0.07619625 16.28639289 -0.04205349 8.14321416 0 0 Z " fill="#493897" transform="translate(33,162)"/>
<path d="M0 0 C0.66 0 1.32 0 2 0 C4.43425238 4.96993194 5.34615998 8.34605369 5 14 C4.01 13.34 3.02 12.68 2 12 C1.67 13.32 1.34 14.64 1 16 C1.75925781 15.9278125 2.51851562 15.855625 3.30078125 15.78125 C4.29464844 15.6884375 5.28851563 15.595625 6.3125 15.5 C7.29863281 15.4071875 8.28476563 15.314375 9.30078125 15.21875 C12 15 12 15 15 15 C15 15.99 15 16.98 15 18 C9.72 18 4.44 18 -1 18 C-1.09765625 8.72265625 -1.09765625 8.72265625 -1 6 C-0.67 5.67 -0.34 5.34 0 5 C0.04063832 3.33382885 0.042721 1.66611905 0 0 Z " fill="#5C49B5" transform="translate(207,98)"/>
<path d="M0 0 C21.11370665 -0.98946715 21.11370665 -0.98946715 27.56640625 3.5546875 C29.50579511 5.50992967 30.46067424 7.30337118 31 10 C27.81583054 8.47159866 24.8041162 6.72293362 21.78125 4.90234375 C18.6003039 3.29094342 15.42052554 2.87078545 11.890625 2.68359375 C11.13652344 2.64169922 10.38242188 2.59980469 9.60546875 2.55664062 C8.43951172 2.49766602 8.43951172 2.49766602 7.25 2.4375 C6.06083984 2.37272461 6.06083984 2.37272461 4.84765625 2.30664062 C2.89862185 2.20097009 0.94933252 2.10002034 -1 2 C-0.67 1.34 -0.34 0.68 0 0 Z " fill="#4D418A" transform="translate(232,33)"/>
<path d="M0 0 C6.93 0 13.86 0 21 0 C21 1.32 21 2.64 21 4 C15.06 4 9.12 4 3 4 C3 3.01 3 2.02 3 1 C2.01 0.67 1.02 0.34 0 0 Z " fill="#4A3A93" transform="translate(246,131)"/>
<path d="M0 0 C3.63 0 7.26 0 11 0 C11 1.32 11 2.64 11 4 C10.34 4 9.68 4 9 4 C8.67 5.65 8.34 7.3 8 9 C7.01 8.34 6.02 7.68 5 7 C2.35367713 7.3121764 2.35367713 7.3121764 0 8 C0 5.33333333 0 2.66666667 0 0 Z " fill="#4735A3" transform="translate(215,106)"/>
<path d="M0 0 C0.33 0 0.66 0 1 0 C1.10124722 7.63538311 1.17140114 15.27059377 1.21972656 22.90649414 C1.23986774 25.50519276 1.26718228 28.10384593 1.30175781 30.70239258 C1.35016388 34.43321942 1.37294401 38.1634482 1.390625 41.89453125 C1.41127014 43.06023148 1.43191528 44.2259317 1.45318604 45.42695618 C1.45348816 46.50785019 1.45379028 47.5887442 1.45410156 48.70239258 C1.46298401 49.65503494 1.47186646 50.60767731 1.48101807 51.58918762 C1 54 1 54 -1.02838135 55.83110046 C-2.00433258 56.40970573 -2.00433258 56.40970573 -3 57 C-3 56.01 -3 55.02 -3 54 C-6.3 54 -9.6 54 -13 54 C-13 53.67 -13 53.34 -13 53 C-7.06 52.505 -7.06 52.505 -1 52 C-0.67 34.84 -0.34 17.68 0 0 Z " fill="#473A89" transform="translate(265,53)"/>
<path d="M0 0 C0.33 0 0.66 0 1 0 C1.33 8.91 1.66 17.82 2 27 C2.99 26.67 3.98 26.34 5 26 C4.67 28.31 4.34 30.62 4 33 C3.01 33 2.02 33 1 33 C1 34.65 1 36.3 1 38 C0.67 37.34 0.34 36.68 0 36 C-0.66 36 -1.32 36 -2 36 C-1.67 35.34 -1.34 34.68 -1 34 C-1.33 33.67 -1.66 33.34 -2 33 C-1.01 32.505 -1.01 32.505 0 32 C0 21.44 0 10.88 0 0 Z " fill="#6757AD" transform="translate(167,112)"/>
<path d="M0 0 C0.84755859 0.00966797 1.69511719 0.01933594 2.56835938 0.02929688 C3.44943359 0.05443359 4.33050781 0.07957031 5.23828125 0.10546875 C6.13095703 0.11900391 7.02363281 0.13253906 7.94335938 0.14648438 C10.14644291 0.18182796 12.34830707 0.23116382 14.55078125 0.29296875 C14.55078125 0.62296875 14.55078125 0.95296875 14.55078125 1.29296875 C9.27078125 1.29296875 3.99078125 1.29296875 -1.44921875 1.29296875 C-1.44921875 1.95296875 -1.44921875 2.61296875 -1.44921875 3.29296875 C-2.43921875 3.29296875 -3.42921875 3.29296875 -4.44921875 3.29296875 C-5.54992635 6.59509155 -5.65548947 9.23380154 -5.765625 12.7109375 C-5.80751953 13.96455078 -5.84941406 15.21816406 -5.89257812 16.50976562 C-5.93189453 17.82009766 -5.97121094 19.13042969 -6.01171875 20.48046875 C-6.05492867 21.81576853 -6.09854375 23.15105527 -6.14257812 24.48632812 C-6.24878377 27.75510172 -6.35082872 31.02395208 -6.44921875 34.29296875 C-6.77921875 34.29296875 -7.10921875 34.29296875 -7.44921875 34.29296875 C-7.52339921 29.93306002 -7.57783419 25.57348596 -7.61401367 21.21313477 C-7.62909643 19.72999676 -7.64956564 18.24690331 -7.67553711 16.76391602 C-7.71194491 14.6315613 -7.72894948 12.4997964 -7.7421875 10.3671875 C-7.75789795 9.08416748 -7.7736084 7.80114746 -7.78979492 6.47924805 C-7.44921875 3.29296875 -7.44921875 3.29296875 -6.20898438 1.36914062 C-3.98148887 0.00693194 -2.60271397 -0.05240364 0 0 Z " fill="#594C9A" transform="translate(97.44921875,72.70703125)"/>
<path d="M0 0 C0.33 0 0.66 0 1 0 C1 6.6 1 13.2 1 20 C1.99 20.33 2.98 20.66 4 21 C2.35 21.33 0.7 21.66 -1 22 C-1.33 24.31 -1.66 26.62 -2 29 C-2.33 29 -2.66 29 -3 29 C-3.12867289 20.93649887 -2.79681084 13.02502344 -2 5 C-1.67 5 -1.34 5 -1 5 C-0.67 3.35 -0.34 1.7 0 0 Z " fill="#544599" transform="translate(46,171)"/>
<path d="M0 0 C1.32 0 2.64 0 4 0 C4 4.95 4 9.9 4 15 C2.68 14.67 1.36 14.34 0 14 C0 9.38 0 4.76 0 0 Z " fill="#E3DBF5" transform="translate(46,75)"/>
<path d="M0 0 C0.99 0.33 1.98 0.66 3 1 C3 1.66 3 2.32 3 3 C10.59 3.33 18.18 3.66 26 4 C26 4.33 26 4.66 26 5 C12.8 5 -0.4 5 -14 5 C-14 4.67 -14 4.34 -14 4 C-13.21753906 3.95101562 -12.43507812 3.90203125 -11.62890625 3.8515625 C-10.61699219 3.77679688 -9.60507813 3.70203125 -8.5625 3.625 C-7.55316406 3.55539063 -6.54382813 3.48578125 -5.50390625 3.4140625 C-4.26447266 3.20910156 -4.26447266 3.20910156 -3 3 C-2.67 2.34 -2.34 1.68 -2 1 C-1.34 0.67 -0.68 0.34 0 0 Z " fill="#A399D1" transform="translate(220,131)"/>
<path d="M0 0 C0.75410156 0.00451172 1.50820312 0.00902344 2.28515625 0.01367188 C4.14847127 0.02546501 6.01174555 0.04340058 7.875 0.0625 C7.875 0.7225 7.875 1.3825 7.875 2.0625 C7.16472656 2.12308594 6.45445312 2.18367187 5.72265625 2.24609375 C4.80355469 2.32988281 3.88445312 2.41367188 2.9375 2.5 C1.56271484 2.62181641 1.56271484 2.62181641 0.16015625 2.74609375 C-2.08659732 2.82294976 -2.08659732 2.82294976 -3.125 4.0625 C-5.45797433 4.10342937 -7.79205225 4.10491723 -10.125 4.0625 C-10.125 3.0725 -10.125 2.0825 -10.125 1.0625 C-6.93675432 -0.53162284 -3.49603338 -0.03924735 0 0 Z " fill="#7666BB" transform="translate(235.125,129.9375)"/>
<path d="M0 0 C-0.33 2.31 -0.66 4.62 -1 7 C-4.34373475 6.44271087 -7.03312999 5.64826111 -10 4 C-9.67 2.68 -9.34 1.36 -9 0 C-3.375 -1.125 -3.375 -1.125 0 0 Z " fill="#4630AE" transform="translate(247,85)"/>
<path d="M0 0 C0.99 0 1.98 0 3 0 C3.04254356 1.99954746 3.04080783 4.00041636 3 6 C2.67 6.33 2.34 6.66 2 7 C1.84213692 8.85174706 1.74892644 10.7090911 1.68359375 12.56640625 C1.64169922 13.69111328 1.59980469 14.81582031 1.55664062 15.97460938 C1.51732422 17.15861328 1.47800781 18.34261719 1.4375 19.5625 C1.39431641 20.75037109 1.35113281 21.93824219 1.30664062 23.16210938 C1.20016454 26.10794784 1.09815159 29.0538743 1 32 C1.66 32.33 2.32 32.66 3 33 C2.01 33 1.02 33 0 33 C0 22.11 0 11.22 0 0 Z " fill="#F0E9FD" transform="translate(39,168)"/>
<path d="M0 0 C0 0.66 0 1.32 0 2 C2.97 2 5.94 2 9 2 C7 5 7 5 4.75 5.625 C3.8425 5.74875 2.935 5.8725 2 6 C0.906875 6.185625 -0.18625 6.37125 -1.3125 6.5625 C-2.199375 6.706875 -3.08625 6.85125 -4 7 C-3.67 6.01 -3.34 5.02 -3 4 C-3.99 3.67 -4.98 3.34 -6 3 C-5.34 3 -4.68 3 -4 3 C-4 2.34 -4 1.68 -4 1 C-2 0 -2 0 0 0 Z " fill="#4630AE" transform="translate(250,107)"/>
<path d="M0 0 C2.64 0 5.28 0 8 0 C8 1.98 8 3.96 8 6 C5.36 6 2.72 6 0 6 C0 4.02 0 2.04 0 0 Z " fill="#FCF8FB" transform="translate(232,59)"/>
<path d="M0 0 C1.32 0.66 2.64 1.32 4 2 C-0.29 6.29 -4.58 10.58 -9 15 C-9.33 14.01 -9.66 13.02 -10 12 C-9.34 11.01 -8.68 10.02 -8 9 C-7.34 9 -6.68 9 -6 9 C-5.67 8.01 -5.34 7.02 -5 6 C-2.9375 5.3125 -2.9375 5.3125 -1 5 C-0.67 3.35 -0.34 1.7 0 0 Z " fill="#503F9D" transform="translate(163,150)"/>
<path d="M0 0 C2 3.75 2 3.75 2 6 C2.75925781 5.9278125 3.51851562 5.855625 4.30078125 5.78125 C5.29464844 5.6884375 6.28851563 5.595625 7.3125 5.5 C8.29863281 5.4071875 9.28476563 5.314375 10.30078125 5.21875 C13 5 13 5 16 5 C16 5.99 16 6.98 16 8 C10.72 8 5.44 8 0 8 C0 5.36 0 2.72 0 0 Z " fill="#594C99" transform="translate(206,108)"/>
<path d="M0 0 C0.66 0 1.32 0 2 0 C3.20217503 2.40435006 3.03897118 3.68381369 2.87890625 6.3515625 C2.83056641 7.20234375 2.78222656 8.053125 2.73242188 8.9296875 C2.64831055 10.26386719 2.64831055 10.26386719 2.5625 11.625 C2.51029297 12.5221875 2.45808594 13.419375 2.40429688 14.34375 C2.2744565 16.56284012 2.13948661 18.78149871 2 21 C1.67 21 1.34 21 1 21 C0.87625 19.906875 0.7525 18.81375 0.625 17.6875 C0.24535199 13.92618198 0.24535199 13.92618198 -2 11 C-2 10.34 -2 9.68 -2 9 C-1.01 9 -0.02 9 1 9 C0.835 7.88625 0.67 6.7725 0.5 5.625 C0 2 0 2 0 0 Z " fill="#5645A5" transform="translate(246,84)"/>
<path d="M0 0 C0.66 0.99 1.32 1.98 2 3 C1.195625 3.763125 0.39125 4.52625 -0.4375 5.3125 C-3.16799024 7.79430898 -3.16799024 7.79430898 -4 11 C-5.65 10.67 -7.3 10.34 -9 10 C-8.06409496 8.8944811 -7.12620142 7.79064547 -6.1875 6.6875 C-5.66542969 6.07261719 -5.14335937 5.45773438 -4.60546875 4.82421875 C-3.12827531 3.14575321 -1.59960869 1.56117966 0 0 Z " fill="#E8E4F4" transform="translate(266,106)"/>
<path d="M0 0 C3.31248187 -0.02888146 6.62493167 -0.04675799 9.9375 -0.0625 C10.88302734 -0.07087891 11.82855469 -0.07925781 12.80273438 -0.08789062 C14.15141602 -0.09272461 14.15141602 -0.09272461 15.52734375 -0.09765625 C16.77632446 -0.10551147 16.77632446 -0.10551147 18.05053711 -0.11352539 C20 0 20 0 21 1 C21.07325168 3.86267567 21.09238205 6.700719 21.0625 9.5625 C21.05798828 10.36880859 21.05347656 11.17511719 21.04882812 12.00585938 C21.03700518 14.00393756 21.01906914 16.00197783 21 18 C20.67 18 20.34 18 20 18 C19.95101562 16.92878906 19.90203125 15.85757813 19.8515625 14.75390625 C19.77654706 13.35674361 19.7009987 11.9596095 19.625 10.5625 C19.5940625 9.85544922 19.563125 9.14839844 19.53125 8.41992188 C19.42719371 6.60760812 19.22080108 4.80182012 19 3 C15.70039859 1.3501993 12.00872116 1.61741639 8.375 1.4375 C7.57320312 1.39431641 6.77140625 1.35113281 5.9453125 1.30664062 C3.9637489 1.20048543 1.98189729 1.09973145 0 1 C0 0.67 0 0.34 0 0 Z " fill="#685C9E" transform="translate(230,49)"/>
<path d="M0 0 C0 2 0 4 0 6 C-0.99 6 -1.98 6 -3 6 C-3.103125 6.598125 -3.20625 7.19625 -3.3125 7.8125 C-4.08876455 10.28243264 -5.07088921 11.32251235 -7 13 C-7.33 12.34 -7.66 11.68 -8 11 C-8.66 10.67 -9.32 10.34 -10 10 C-6.7 6.7 -3.4 3.4 0 0 Z M-9 13 C-7 14 -7 14 -7 14 Z " fill="#5849A3" transform="translate(52,36)"/>
<path d="M0 0 C0 3.63 0 7.26 0 11 C-1.32 11.33 -2.64 11.66 -4 12 C-4 8.37 -4 4.74 -4 1 C-1 0 -1 0 0 0 Z " fill="#B8ACE3" transform="translate(247,94)"/>
<path d="M0 0 C0.33 0 0.66 0 1 0 C1.78463713 8.00329877 1.78463713 8.00329877 -1.3125 11.9375 C-3.16074923 13.35592383 -5.0614922 14.70766147 -7 16 C-6.50168276 12.31245243 -5.89932357 10.39509338 -3 8 C-2.67 8.33 -2.34 8.66 -2 9 C-1.34 6.03 -0.68 3.06 0 0 Z " fill="#493996" transform="translate(182,65)"/>
<path d="M0 0 C0.66 0.33 1.32 0.66 2 1 C0.85996765 4.42009706 -0.22170198 5.28869442 -2.9375 7.5625 C-5.03343963 9.33130568 -7.05994888 11.05994888 -9 13 C-9.66 12.34 -10.32 11.68 -11 11 C-7.37 7.37 -3.74 3.74 0 0 Z " fill="#F0EBFD" transform="translate(172,146)"/>
<path d="M0 0 C0.33 0 0.66 0 1 0 C2.0735426 10.5309417 2.0735426 10.5309417 -0.55859375 14.1328125 C-2.30978411 15.59155055 -4.03123619 16.85490268 -6 18 C-6 17.01 -6 16.02 -6 15 C-5.34 15 -4.68 15 -4 15 C-4 13.68 -4 12.36 -4 11 C-2.68 10.67 -1.36 10.34 0 10 C0 6.7 0 3.4 0 0 Z " fill="#534790" transform="translate(230,95)"/>
<path d="M0 0 C0.99 0.66 1.98 1.32 3 2 C1.73548068 3.31858428 0.46314525 4.62967631 -0.8125 5.9375 C-1.52019531 6.66839844 -2.22789063 7.39929688 -2.95703125 8.15234375 C-5 10 -5 10 -8 11 C-8.33 10.34 -8.66 9.68 -9 9 C-8.01 9 -7.02 9 -6 9 C-5.67 7.68 -5.34 6.36 -5 5 C-3.68 4.67 -2.36 4.34 -1 4 C-0.67 2.68 -0.34 1.36 0 0 Z " fill="#514297" transform="translate(80,224)"/>
<path d="M0 0 C0.33 0 0.66 0 1 0 C1 1.98 1 3.96 1 6 C3.64 6 6.28 6 9 6 C9 4.02 9 2.04 9 0 C9.33 0 9.66 0 10 0 C10 1.65 10 3.3 10 5 C11.32 4.67 12.64 4.34 14 4 C14.33 4.66 14.66 5.32 15 6 C12.11584117 7.44207941 9.58278472 7.09394887 6.375 7.0625 C5.18648437 7.05347656 3.99796875 7.04445313 2.7734375 7.03515625 C1.85820312 7.02355469 0.94296875 7.01195313 0 7 C0 4.69 0 2.38 0 0 Z " fill="#7E70C4" transform="translate(231,59)"/>
<path d="M0 0 C0.83660156 0.12761719 1.67320312 0.25523437 2.53515625 0.38671875 C5.93577985 0.87552554 9.15884769 1.14188761 12.59765625 1.07421875 C12.59765625 1.73421875 12.59765625 2.39421875 12.59765625 3.07421875 C6.32765625 3.07421875 0.05765625 3.07421875 -6.40234375 3.07421875 C-2.40234375 0.07421875 -2.40234375 0.07421875 0 0 Z " fill="#524395" transform="translate(235.40234375,131.92578125)"/>
<path d="M0 0 C3.93809611 3.76687454 3.93809611 3.76687454 4.09765625 6.9453125 C4.06510417 8.96354167 4.03255208 10.98177083 4 13 C1.96180154 10.96180154 1.32158941 9.70582202 0.3125 7.0625 C0.04050781 6.37285156 -0.23148437 5.68320312 -0.51171875 4.97265625 C-1 3 -1 3 0 0 Z " fill="#584D94" transform="translate(262,40)"/>
<path d="M0 0 C1.1875 1.6875 1.1875 1.6875 0.875 3.875 C0.5346875 4.7721875 0.5346875 4.7721875 0.1875 5.6875 C-0.1425 4.6975 -0.4725 3.7075 -0.8125 2.6875 C-1.8025 2.3575 -2.7925 2.0275 -3.8125 1.6875 C-3.4825 1.0275 -3.1525 0.3675 -2.8125 -0.3125 C-5.4525 -0.3125 -8.0925 -0.3125 -10.8125 -0.3125 C-10.8125 -0.6425 -10.8125 -0.9725 -10.8125 -1.3125 C-6.47225196 -2.39756201 -3.70811433 -2.68518624 0 0 Z " fill="#53449E" transform="translate(172.8125,106.3125)"/>
<path d="M0 0 C1.32 0 2.64 0 4 0 C3.67 1.65 3.34 3.3 3 5 C1.35 5.33 -0.3 5.66 -2 6 C-1.125 1.125 -1.125 1.125 0 0 Z " fill="#4630AF" transform="translate(232,51)"/>
<path d="M0 0 C6.36363636 -0.48951049 6.36363636 -0.48951049 9.4375 1.875 C11 4 11 4 11 6 C9.68 5.67 8.36 5.34 7 5 C7 4.34 7 3.68 7 3 C5.68 3 4.36 3 3 3 C3 2.34 3 1.68 3 1 C2.01 0.67 1.02 0.34 0 0 Z " fill="#514397" transform="translate(172,33)"/>
<path d="M0 0 C2.475 0.495 2.475 0.495 5 1 C5.33 2.32 5.66 3.64 6 5 C4.02 5 2.04 5 0 5 C0 3.35 0 1.7 0 0 Z " fill="#544698" transform="translate(205,130)"/>
<path d="M0 0 C3.3 0 6.6 0 10 0 C10 0.66 10 1.32 10 2 C5.545 2.495 5.545 2.495 1 3 C0.67 2.01 0.34 1.02 0 0 Z " fill="#6759A6" transform="translate(233,130)"/>
<path d="M0 0 C2.97 0 5.94 0 9 0 C8.34 1.32 7.68 2.64 7 4 C3.38144425 3.37611108 2.8290723 2.8290723 0 0 Z " fill="#776AB9" transform="translate(208,130)"/>
<path d="M0 0 C2.64 0 5.28 0 8 0 C8 1.98 8 3.96 8 6 C7.01 6 6.02 6 5 6 C4.87625 5.071875 4.87625 5.071875 4.75 4.125 C4.18741541 1.81562433 4.18741541 1.81562433 1.9375 0.75 C1.298125 0.5025 0.65875 0.255 0 0 Z " fill="#F0E9FE" transform="translate(232,59)"/>
<path d="M0 0 C2.97 0 5.94 0 9 0 C9 0.66 9 1.32 9 2 C4.545 2.495 4.545 2.495 0 3 C0 2.01 0 1.02 0 0 Z " fill="#503DA7" transform="translate(249,132)"/>
<path d="M0 0 C0.33 0.66 0.66 1.32 1 2 C3.52733235 2.65555119 3.52733235 2.65555119 6 3 C6 3.99 6 4.98 6 6 C2.20411134 5.45773019 0.52788007 3.79872437 -2 1 C-1.34 0.67 -0.68 0.34 0 0 Z " fill="#F4F1FD" transform="translate(170,102)"/>
<path d="M0 0 C0 3.61029169 -0.96092582 6.55806676 -2 10 C-2.33 10 -2.66 10 -3 10 C-3.29296875 3.9453125 -3.29296875 3.9453125 -3 2 C-2.01 1.34 -1.02 0.68 0 0 Z " fill="#493896" transform="translate(36,54)"/>
<path d="M0 0 C0.33 0.66 0.66 1.32 1 2 C-0.32 3.65 -1.64 5.3 -3 7 C-3.99 6.67 -4.98 6.34 -6 6 C-4.02 4.02 -2.04 2.04 0 0 Z " fill="#DBD4F1" transform="translate(172,84)"/>
</svg>
